<svg xmlns="http://www.w3.org/2000/svg" width="16" height="14" fill="none"><g clip-path="url(#a)"><path stroke="#fff" stroke-width=".6" d="M3.197 8.98h-.074C1.625 8.938.425 7.676.425 6.267c0-1.434 1.141-2.616 2.594-2.706l.206-.012.062-.197C3.847 1.583 5.422.3 7.52.3c2.096 0 3.847 1.423 4.31 3.33l.062.25.256-.023a3 3 0 0 1 .22-.01c1.453 0 2.623 1.155 2.623 2.566S13.822 8.98 12.368 8.98z"/><path fill="#fff" d="M1.679 9.979.865 11.36a.25.25 0 0 0 .094.345.26.26 0 0 0 .352-.092l.814-1.382a.25.25 0 0 0-.094-.346.26.26 0 0 0-.352.093M3.848 13.367c.123.07.282.028.353-.092l1.792-3.044a.25.25 0 0 0-.095-.346.26.26 0 0 0-.352.093l-1.792 3.044a.25.25 0 0 0 .094.345M3.914 9.886a.26.26 0 0 0-.352.093l-1.366 2.32a.25.25 0 0 0 .095.346c.122.07.28.027.352-.093l1.366-2.32a.25.25 0 0 0-.095-.346M9.592 13.72a.26.26 0 0 0 .353-.093l1.999-3.395a.25.25 0 0 0-.095-.346.26.26 0 0 0-.352.093l-1.999 3.395a.25.25 0 0 0 .094.345M13.481 9.979l-1.44 2.446a.25.25 0 0 0 .095.345c.122.07.28.028.352-.092l1.44-2.446a.25.25 0 0 0-.095-.346.26.26 0 0 0-.352.093M7.463 13.966a.26.26 0 0 0 .352-.092l2.145-3.642a.25.25 0 0 0-.095-.346.26.26 0 0 0-.352.093L7.37 13.62a.25.25 0 0 0 .094.345M5.567 13.819a.26.26 0 0 0 .352-.093l2.058-3.494a.25.25 0 0 0-.095-.346.26.26 0 0 0-.352.093l-2.058 3.495a.25.25 0 0 0 .095.345"/></g><defs><clipPath id="a"><path fill="#fff" d="M.125 0h15.167v14H.125z"/></clipPath></defs></svg>