<svg xmlns="http://www.w3.org/2000/svg" xml:space="preserve" id="レイヤー_1" x="0" y="0" version="1.1" viewBox="0 0 15 14"><style>.st0{fill:#fff}</style><path d="M1.5 4.1c0-.1-.1-.2-.2-.2s-.2.1-.2.2v3.6c.1-.3.3-.5.5-.8V4.1zM3.3 5.1V1.8c0-.1-.1-.2-.2-.2s-.2.1-.2.2v3.7H3c0-.2.2-.3.3-.4M5.1.7c0-.1-.1-.2-.2-.2s-.2.1-.2.2v3.7c.2-.1.3-.1.5-.2V.7zM6.9.2c0-.1-.2-.2-.3-.2s-.2.1-.2.2v3.6c.2 0 .3 0 .5-.1zM8.6.2c0-.1-.1-.2-.2-.2s-.3.1-.3.2v3.6c.2 0 .3 0 .5.1zM10.4.7c0-.1-.1-.2-.2-.2s-.2.1-.2.2v3.5c.2.1.3.1.5.2V.7zM12.2 5.5V1.8c0-.1-.1-.2-.2-.2s-.2.1-.2.2v3.3c0 .1.2.2.4.4q-.15 0 0 0M13.9 4.1c0-.1-.1-.2-.2-.2s-.2.1-.2.2v2.8c.2.3.3.5.5.8V4.1z" class="st0"/><path d="M7.5 4.8h.6c.1 0 .3 0 .4.1q.6 0 1.2.3c.1.1.3.1.4.2.4.2.8.4 1.2.7.1 0 .1.1.2.1.1.1.2.2.3.2q.75.6 1.2 1.5c.1.1.1.3.2.4-.4-.2-.8-.2-1.2-.2-.5 0-1.1.1-1.5.4-.3.1-.5.3-.7.6-.3-.2-.5-.4-.8-.6-.2-.1-.5-.2-.7-.3h-.4v-.1h-.8v.1c-.1 0-.3 0-.4.1-.2 0-.5.1-.7.2-.3.2-.5.4-.7.6-.2-.2-.5-.4-.7-.6-.5-.2-1-.4-1.6-.4-.4 0-.8.1-1.2.2.1-.1.2-.2.3-.4q.45-.9 1.2-1.5c.1-.1.2-.2.3-.2s.1-.1.2-.1c.2-.3.6-.5 1.1-.7.1-.1.2-.2.4-.2q.6-.3 1.2-.3c.1 0 .3 0 .4-.1h.6m0-1.9c-.1 0-.2.1-.2.2v1.1h-.4c-.2 0-.3 0-.5.1-.5 0-.9.2-1.3.3-.2.1-.3.1-.5.2-.5.2-.9.5-1.3.8-.1 0-.1.1-.2.1l-.3.3c-.5.5-.9 1-1.3 1.7-.1.2-.2.5-.3.7l-.3.9v.4c0 .1 0 .1.1.1h.1s.1 0 .1-.1l.1-.1s0-.1.1-.1c.3-.5.9-.8 1.6-.8q.75 0 1.2.3.6.3.9.9l.1.1s.1 0 .1-.1q.3-.6.9-.9c.3 0 .5-.1.7-.2.1 0 .3-.1.4-.1v4.4c0 .2.1.5.3.6q.15.3.6.3c.2 0 .5-.1.6-.3.1-.1.2-.3.2-.6 0-.1-.1-.2-.2-.2s-.2.1-.2.2v.2c0 .1-.1.1-.2.2-.1 0-.2.1-.2.1H8c-.1 0-.1-.1-.2-.2 0-.1-.1-.2-.1-.2V8.7c.1 0 .3 0 .4.1l.6.3q.6.3.9.9l.1.1s.1 0 .1-.1q.3-.6.9-.9t1.2-.3c.4 0 .8.1 1.1.3.2.1.5.3.6.5 0 0 0 .1.1.1l.1.1.1.1h.1c.1 0 .1-.1.1-.1v-.4c-.1-.4-.2-.7-.3-1s-.2-.5-.4-.8c-.3-.6-.7-1.1-1.2-1.6l-.3-.3c-.1 0-.1-.1-.2-.1-.4-.3-.8-.6-1.3-.8-.2-.1-.3-.1-.5-.2-.4-.1-.8-.3-1.3-.3-.2 0-.3 0-.5-.1h-.4V3.1c0-.1-.1-.2-.2-.2" class="st0"/></svg>