<svg xmlns="http://www.w3.org/2000/svg" width="40" height="40" fill="none"><path fill="#fff" fill-opacity=".6" fill-rule="evenodd" d="M32.504 20c0 .567-.05 1.1-.117 1.633l3.517 2.75c.316.25.4.7.2 1.067l-3.334 5.767c-.2.366-.633.516-1.016.366l-4.15-1.666c-.867.65-1.8 1.216-2.817 1.633l-.633 4.417c-.05.4-.4.7-.817.7H16.67a.813.813 0 0 1-.816-.7l-.634-4.417a12.2 12.2 0 0 1-2.816-1.633l-4.15 1.666c-.367.134-.817 0-1.017-.366L3.904 25.45a.84.84 0 0 1 .2-1.067l3.516-2.75A13 13 0 0 1 7.504 20c0-.55.05-1.1.116-1.633l-3.516-2.75a.82.82 0 0 1-.2-1.067l3.333-5.767a.813.813 0 0 1 1.017-.366l4.15 1.666c.866-.65 1.8-1.216 2.816-1.633l.634-4.417c.05-.4.4-.7.816-.7h6.667c.417 0 .767.3.817.7l.633 4.417c1.017.417 1.95.967 2.817 1.633l4.15-1.666c.366-.134.816 0 1.016.366l3.334 5.767a.84.84 0 0 1-.2 1.067l-3.517 2.75c.067.533.117 1.066.117 1.633M14.17 20a5.84 5.84 0 0 0 5.834 5.833A5.84 5.84 0 0 0 25.837 20a5.84 5.84 0 0 0-5.833-5.833A5.84 5.84 0 0 0 14.17 20" clip-rule="evenodd"/></svg>