<svg xmlns="http://www.w3.org/2000/svg" width="40" height="40" fill="none"><path fill="#fff" fill-opacity=".6" fill-rule="evenodd" d="M11.667 15c0 .917-.75 1.667-1.667 1.667S8.333 15.917 8.333 15v-5c0-.917.75-1.667 1.667-1.667h5c.917 0 1.667.75 1.667 1.667s-.75 1.667-1.667 1.667h-3.333zM8.333 25c0-.917.75-1.667 1.667-1.667s1.667.75 1.667 1.667v3.333H15c.917 0 1.667.75 1.667 1.667s-.75 1.667-1.667 1.667h-5c-.917 0-1.667-.75-1.667-1.667zm20 3.333H25c-.917 0-1.667.75-1.667 1.667s.75 1.667 1.667 1.667h5c.917 0 1.667-.75 1.667-1.667v-5c0-.917-.75-1.667-1.667-1.667s-1.667.75-1.667 1.667zM25 11.667c-.917 0-1.667-.75-1.667-1.667s.75-1.667 1.667-1.667h5c.917 0 1.667.75 1.667 1.667v5c0 .917-.75 1.667-1.667 1.667s-1.667-.75-1.667-1.667v-3.333z" clip-rule="evenodd"/></svg>