<svg xmlns="http://www.w3.org/2000/svg" width="40" height="40" fill="none"><path fill="#fff" fill-opacity=".6" fill-rule="evenodd" d="M10 13.333h3.333V10c0-.917.75-1.667 1.667-1.667s1.667.75 1.667 1.667v5c0 .917-.75 1.667-1.667 1.667h-5c-.917 0-1.667-.75-1.667-1.667s.75-1.667 1.667-1.667m3.333 13.334H10c-.917 0-1.667-.75-1.667-1.667s.75-1.667 1.667-1.667h5c.917 0 1.667.75 1.667 1.667v5c0 .917-.75 1.667-1.667 1.667s-1.667-.75-1.667-1.667zm11.667 5c.917 0 1.667-.75 1.667-1.667v-3.333H30c.917 0 1.667-.75 1.667-1.667s-.75-1.667-1.667-1.667h-5c-.917 0-1.667.75-1.667 1.667v5c0 .917.75 1.667 1.667 1.667M26.667 10v3.333H30c.917 0 1.667.75 1.667 1.667s-.75 1.667-1.667 1.667h-5c-.917 0-1.667-.75-1.667-1.667v-5c0-.917.75-1.667 1.667-1.667s1.667.75 1.667 1.667" clip-rule="evenodd"/></svg>