<svg xmlns="http://www.w3.org/2000/svg" width="131" height="96" fill="none"><path fill="#00A7CB" d="M14.038 41.751c.841.505 1.907.169 2.412-.673L38.385 2.706c.505-.842.169-1.908-.673-2.413-.841-.505-1.907-.168-2.412.674L13.365 39.339a1.82 1.82 0 0 0 .673 2.412M39.395 23.912 51.513 2.706c.505-.842.168-1.908-.673-2.413s-1.908-.168-2.413.674l-14.53 25.469a54 54 0 0 1 5.498-2.524M24.585.293c-.842-.505-1.908-.168-2.413.674L.237 39.339c-.505.842-.168 1.907.673 2.412s1.908.169 2.413-.673L25.258 2.706c.505-.842.168-1.908-.673-2.413M54.598 20.377V14.88c0-1.234.505-2.412 1.347-3.197.841-.842 1.963-1.347 3.197-1.347.393 0 .73.056 1.066.112L64.64 2.65c.505-.842.168-1.908-.673-2.413S62.06.07 61.555.91L50.166 20.882a56 56 0 0 1 4.432-.505M63.687 20.377c1.29.112 2.524.28 3.758.449l10.323-18.12c.504-.842.168-1.908-.674-2.413-.841-.505-1.907-.168-2.412.674zM78.834 23.912 90.95 2.706c.505-.842.168-1.908-.673-2.413S88.37.125 87.865.967L75.468 22.733q1.682.506 3.365 1.178M88.932 29.185l15.146-26.48c.505-.84.169-1.907-.673-2.412-.841-.505-1.907-.168-2.412.674L85.958 27.334c1.01.56 2.02 1.234 2.974 1.85M97.851 36.646l19.355-33.94c.505-.842.168-1.908-.673-2.413s-1.908-.168-2.413.674L95.215 34.122c.897.785 1.739 1.627 2.636 2.524M129.66.293c-.841-.505-1.907-.168-2.412.674l-21.935 38.372c-.505.842-.169 1.907.673 2.412.841.505 1.907.169 2.412-.673l21.935-38.372c.505-.842.169-1.908-.673-2.413"/><path fill="#00A7CB" d="M108.847 63.294c-.056-.225-.112-.505-.168-.73s-.113-.392-.113-.617c-.056-.28-.168-.56-.224-.841-2.132-8.303-6.339-15.764-12.005-21.88a56 56 0 0 0-2.581-2.58c-.73-.673-1.459-1.346-2.244-1.963-1.29-1.066-2.637-2.02-3.983-2.974a33 33 0 0 0-2.973-1.85 52 52 0 0 0-7.125-3.423c-1.122-.449-2.244-.785-3.422-1.178-2.58-.785-5.33-1.403-8.079-1.74q-1.935-.252-3.87-.336c-.45 0-.842-.056-1.29-.056v-8.19c0-.898-.73-1.627-1.628-1.627a1.7 1.7 0 0 0-.56.112 1.64 1.64 0 0 0-1.067 1.514v8.191c-1.57.056-3.141.168-4.712.393-1.515.168-3.03.449-4.488.785-3.983.842-7.742 2.188-11.276 3.871-2.076 1.01-4.095 2.188-6.059 3.478-1.459.954-2.861 1.964-4.151 3.086C18.694 41.47 12.69 50.67 9.999 61.162c-.057.28-.169.561-.225.842-.056.224-.112.392-.112.617-.056.224-.112.448-.168.729-.056.112-.056.28-.112.392-.113.45.112.842.56 1.066a.855.855 0 0 0 1.123-.28c.112-.112.168-.225.28-.337.056-.056.112-.112.168-.224.225-.28.45-.505.674-.785.168-.169.336-.393.504-.562 3.366-3.534 8.079-5.722 13.296-5.722 3.366 0 6.508.898 9.257 2.469a18.4 18.4 0 0 1 6.563 6.563c.169.281.45.45.786.45a.9.9 0 0 0 .785-.45 18.4 18.4 0 0 1 6.564-6.563c1.459-.842 3.03-1.515 4.712-1.908a24 24 0 0 1 2.917-.505v32.538c0 1.796.73 3.423 1.908 4.6a6.49 6.49 0 0 0 4.6 1.908c1.795 0 3.422-.73 4.6-1.907a6.49 6.49 0 0 0 1.908-4.6 1.628 1.628 0 0 0-3.254 0c0 .448-.112.897-.28 1.234-.225.56-.674 1.066-1.179 1.402a3.24 3.24 0 0 1-1.795.561c-.449 0-.897-.112-1.234-.28-.561-.225-1.066-.674-1.403-1.178a3.24 3.24 0 0 1-.56-1.796V56.898c1.01.112 1.963.28 2.917.505 1.683.449 3.253 1.066 4.656 1.908a18.4 18.4 0 0 1 6.564 6.563c.168.28.448.45.785.45a.9.9 0 0 0 .785-.45 18.4 18.4 0 0 1 6.564-6.563c2.693-1.571 5.89-2.469 9.257-2.469 3.085 0 5.946.73 8.471 2.076a19.2 19.2 0 0 1 4.824 3.647c.169.168.337.392.505.56.225.281.449.505.673.786a.8.8 0 0 1 .169.224c.112.112.168.225.28.337.281.336.729.505 1.122.28.393-.168.617-.617.561-1.065a.51.51 0 0 1-.168-.393"/></svg>