<svg xmlns="http://www.w3.org/2000/svg" width="96" height="96" fill="none"><path fill="#fff" d="M70.308 36.937a.93.93 0 0 0-1.071.813 4.1 4.1 0 0 1-1.404 2.512 4.14 4.14 0 0 1-2.733.997 4.06 4.06 0 0 1-2.734-1.034 4.1 4.1 0 0 1-1.403-2.512.954.954 0 0 0-1.071-.813.954.954 0 0 0-.813 1.072 5.95 5.95 0 0 0 2.032 3.656 6.1 6.1 0 0 0 3.989 1.478 6.1 6.1 0 0 0 3.989-1.478 6.06 6.06 0 0 0 2.032-3.657c.036-.48-.296-.96-.813-1.034m-10.084-4.506a1.64 1.64 0 0 0 1.625-1.625 1.64 1.64 0 0 0-1.625-1.626 1.64 1.64 0 0 0-1.625 1.626 1.64 1.64 0 0 0 1.625 1.625m9.715 0a1.64 1.64 0 0 0 1.625-1.625 1.64 1.64 0 0 0-1.625-1.626 1.64 1.64 0 0 0-1.626 1.626 1.64 1.64 0 0 0 1.626 1.625"/><path fill="#A9C3CB" d="M76.957 44.473a14.47 14.47 0 0 0 2.585-8.274c0-8.016-6.5-14.48-14.48-14.48-7.978 0-14.479 6.501-14.479 14.48 0 3.065.96 5.91 2.586 8.273l-.074.074c2.918 1.404 5.615 3.103 8.052 5.135a39.26 39.26 0 0 1 13.446 22.347c.036.184.073.369.073.554 0 .295-.036.59-.147.886 5.171-3.176 8.643-8.902 8.643-15.403 0-5.392-2.4-10.268-6.205-13.593M60.224 29.18a1.64 1.64 0 0 1 1.625 1.626 1.64 1.64 0 0 1-1.625 1.625 1.64 1.64 0 0 1-1.625-1.625 1.64 1.64 0 0 1 1.625-1.626m10.86 8.828a6.06 6.06 0 0 1-2.032 3.657 6.1 6.1 0 0 1-3.99 1.478 6.1 6.1 0 0 1-3.988-1.478 6.06 6.06 0 0 1-2.032-3.657.954.954 0 0 1 .813-1.07.954.954 0 0 1 1.07.812 4.1 4.1 0 0 0 1.404 2.512c.74.627 1.7 1.034 2.734 1.034s1.994-.37 2.733-.998a4.1 4.1 0 0 0 1.404-2.511.954.954 0 0 1 1.071-.813c.554.037.886.517.813 1.034m-1.145-5.577a1.64 1.64 0 0 1-1.626-1.625 1.64 1.64 0 0 1 1.626-1.626 1.64 1.64 0 0 1 1.625 1.626 1.64 1.64 0 0 1-1.625 1.625M92.803 17.73a3.137 3.137 0 0 0-3.14 3.14 3.137 3.137 0 0 0 3.14 3.14 3.137 3.137 0 0 0 3.14-3.14 3.137 3.137 0 0 0-3.14-3.14M90.328 41.111a3.137 3.137 0 0 0-3.14 3.14 3.137 3.137 0 0 0 3.14 3.14 3.137 3.137 0 0 0 3.14-3.14c.036-1.7-1.404-3.14-3.14-3.14M44.858 15.44a3.137 3.137 0 0 0 3.14-3.14 3.137 3.137 0 0 0-3.14-3.14 3.137 3.137 0 0 0-3.14 3.14c-.037 1.7 1.367 3.14 3.14 3.14M44.821 28.626a3.137 3.137 0 0 0 3.14-3.14 3.137 3.137 0 0 0-3.14-3.139 3.137 3.137 0 0 0-3.14 3.14c0 1.699 1.404 3.14 3.14 3.14M89.441 30.806a3.137 3.137 0 0 0-3.14-3.14 3.137 3.137 0 0 0-3.139 3.14 3.137 3.137 0 0 0 3.14 3.14 3.137 3.137 0 0 0 3.14-3.14M60.076 6.316a3.137 3.137 0 0 0 3.14-3.14 3.137 3.137 0 0 0-3.14-3.139 3.137 3.137 0 0 0-3.14 3.14c-.036 1.699 1.404 3.14 3.14 3.14M73.854 6.28a3.137 3.137 0 0 0 3.14-3.14A3.137 3.137 0 0 0 73.854 0a3.137 3.137 0 0 0-3.14 3.14c0 1.699 1.404 3.14 3.14 3.14M85.563 12.559a3.137 3.137 0 0 0 3.14-3.14 3.137 3.137 0 0 0-3.14-3.14 3.137 3.137 0 0 0-3.14 3.14c0 1.7 1.404 3.14 3.14 3.14M55.607 19.429a3.137 3.137 0 0 0 3.14-3.14 3.137 3.137 0 0 0-3.14-3.14 3.137 3.137 0 0 0-3.14 3.14c-.037 1.736 1.367 3.14 3.14 3.14M79.247 22.125a3.137 3.137 0 0 0 3.14-3.14 3.137 3.137 0 0 0-3.14-3.139 3.137 3.137 0 0 0-3.14 3.14c0 1.699 1.404 3.14 3.14 3.14M67.094 17.102a3.137 3.137 0 0 0 3.14-3.14 3.137 3.137 0 0 0-3.14-3.14 3.137 3.137 0 0 0-3.14 3.14 3.137 3.137 0 0 0 3.14 3.14"/><path fill="#00A7CB" d="M72.45 72.176c-.037-.185-.074-.333-.11-.518l-.111-.443c-.037-.222-.111-.406-.148-.628-.332-1.33-.776-2.622-1.256-3.915-2.29-6.021-6.132-11.303-11.007-15.366a37 37 0 0 0-8.311-5.171c-4.322-1.958-9.05-3.103-14.073-3.288V36.9c0-.664-.517-1.182-1.182-1.182s-1.182.517-1.182 1.182v5.984a36.63 36.63 0 0 0-22.347 8.459A37.13 37.13 0 0 0 .46 70.587c-.037.222-.111.406-.148.628l-.111.443c-.037.185-.074.333-.11.517-.038.111-.038.185-.075.296-.074.295.111.628.407.739.295.11.628.037.812-.222.074-.074.111-.148.185-.258.037-.037.074-.111.11-.148.148-.185.296-.37.48-.554.112-.148.26-.259.37-.407a13.35 13.35 0 0 1 9.678-4.137c2.438 0 4.765.665 6.722 1.81a13.8 13.8 0 0 1 4.802 4.765c.111.222.333.333.591.333.259 0 .48-.111.591-.333a13.2 13.2 0 0 1 4.802-4.765c1.071-.628 2.216-1.07 3.435-1.403a13.7 13.7 0 0 1 2.143-.37v23.714c0 1.293.517 2.512 1.403 3.361A4.74 4.74 0 0 0 39.91 96c1.292 0 2.511-.517 3.36-1.404a4.74 4.74 0 0 0 1.404-3.36c0-.666-.517-1.183-1.181-1.183-.665 0-1.182.517-1.182 1.182 0 .332-.074.628-.185.924a2.57 2.57 0 0 1-.85 1.034c-.37.258-.812.406-1.33.406-.332 0-.627-.074-.923-.185a2.57 2.57 0 0 1-1.034-.85 2.27 2.27 0 0 1-.407-1.329V67.521c.74.074 1.441.185 2.143.37 1.219.295 2.364.775 3.398 1.403a13.8 13.8 0 0 1 4.802 4.765c.11.222.332.333.591.333.074 0 .148 0 .222-.037a.59.59 0 0 0 .369-.296 14 14 0 0 1 3.029-3.546c.554-.443 1.145-.886 1.773-1.219A13.36 13.36 0 0 1 66.798 69a13.1 13.1 0 0 1 3.51 2.66c.11.147.258.258.37.406.147.184.332.369.48.554.036.037.073.11.11.147.074.074.111.148.185.259.185.259.517.37.813.222.295-.111.443-.444.406-.74-.185-.147-.185-.258-.222-.332"/></svg>