<svg xmlns="http://www.w3.org/2000/svg" width="96" height="96" fill="none"><g fill="#EA8C3A" clip-path="url(#a)"><path d="M39.644 13.294h16.678c1.196 0 1.606-.786.888-1.777L49.282.717c-.718-.956-1.88-.956-2.598 0l-7.929 10.8c-.717.991-.307 1.777.889 1.777M15.687 28.742c.17 1.196 1.025 1.47 1.88.615l11.79-11.79c.855-.855.581-1.71-.615-1.88l-13.26-2.017c-1.196-.17-2.017.65-1.846 1.846zM11.517 38.79l-10.8 7.928c-.956.718-.956 1.88 0 2.598l10.8 7.929c.957.717 1.777.307 1.777-.89V39.679c0-1.23-.82-1.606-1.777-.889M17.566 66.643c-.854-.854-1.708-.581-1.88.615l-2.016 13.26c-.17 1.197.65 2.017 1.846 1.846l13.26-2.017c1.196-.17 1.47-1.025.615-1.88zM56.322 82.706H39.644c-1.196 0-1.606.786-.889 1.777l7.93 10.8c.717.956 1.879.956 2.597 0l7.928-10.8c.718-.991.308-1.777-.888-1.777M80.313 67.258c-.17-1.196-1.025-1.47-1.88-.615l-11.79 11.79c-.855.855-.581 1.71.615 1.88l13.26 2.017c1.197.17 2.017-.65 1.846-1.846zM95.248 46.718l-10.8-7.928c-.956-.718-1.777-.308-1.777.888v16.678c0 1.196.786 1.606 1.778.889l10.8-7.93c.956-.717.956-1.879 0-2.597M80.484 13.67l-13.26 2.017c-1.196.17-1.47 1.025-.615 1.88l11.79 11.79c.855.855 1.71.581 1.88-.615l2.017-13.26c.204-1.162-.616-1.982-1.812-1.812M47.983 77.408c16.232 0 29.391-13.159 29.391-29.39 0-16.233-13.159-29.392-29.391-29.392S18.592 31.785 18.592 48.017s13.159 29.391 29.39 29.391"/></g><defs><clipPath id="a"><path fill="#fff" d="M0 0h95.966v96H0z"/></clipPath></defs></svg>