<svg xmlns="http://www.w3.org/2000/svg" width="185" height="96" fill="none"><g clip-path="url(#a)"><path fill="#00A7CB" d="M184.515 58.967c0-.13-.065-.326-.13-.456-.065-.26-.13-.52-.195-.846-.065-.195-.13-.456-.13-.65-.065-.326-.13-.652-.261-.977a58.2 58.2 0 0 0-19.265-30.264c-9.632-7.94-21.803-12.822-35.145-13.278V3.06a1.889 1.889 0 0 0-3.775 0v9.437c-11.586.39-22.259 4.1-31.176 10.284.13.39.325.846.456 1.301 1.106.065 2.147.13 3.189.326 5.532.911 10.543 3.514 14.383 7.354a26.23 26.23 0 0 1 7.615 17.248v1.236c0 .781-.065 1.563-.13 2.278.716-.26 1.497-.52 2.278-.716a30 30 0 0 1 3.319-.585v37.294c0 2.017.847 3.904 2.148 5.271 1.367 1.367 3.189 2.213 5.272 2.213 2.018 0 3.905-.846 5.272-2.213s2.213-3.189 2.213-5.272a1.889 1.889 0 0 0-3.775 0c0 .52-.13.977-.26 1.432-.261.65-.781 1.237-1.367 1.627s-1.302.651-2.083.651c-.521 0-.976-.13-1.432-.26-.651-.26-1.236-.781-1.627-1.367a3.77 3.77 0 0 1-.651-2.083V51.222q1.757.195 3.32.585c1.887.456 3.709 1.237 5.337 2.213a21.3 21.3 0 0 1 7.549 7.485c.196.325.521.52.912.52.39 0 .716-.194.911-.52 1.822-3.124 4.426-5.662 7.55-7.485a20.8 20.8 0 0 1 10.543-2.863c3.515 0 6.834.846 9.698 2.343a21.7 21.7 0 0 1 5.532 4.165c.195.195.391.456.586.65.26.261.521.587.716.912.065.065.13.13.195.26.13.13.195.26.326.391.325.39.846.52 1.301.325.586-.26.846-.78.781-1.236"/><path fill="#B5B5B6" d="M93.982 27.726h-.65c-.391 0-.847.065-1.237.065a21.5 21.5 0 0 0-.781-2.733c-.39-1.107-.781-2.213-1.237-3.255C84.48 8.982 71.658 0 56.754 0c-16.271 0-30.07 10.739-34.69 25.513C9.763 26.294 0 36.513 0 49.01c0 13.017 10.544 23.56 23.56 23.56h70.422c7.16 0 13.538-3.384 17.703-8.656.261-.325.521-.716.781-1.106.196-.326.391-.586.586-.911 1.367-2.278 2.408-4.752 2.929-7.42.26-1.302.391-2.734.456-4.1v-.26c0-12.367-10.089-22.39-22.455-22.39"/></g><defs><clipPath id="a"><path fill="#fff" d="M0 0h184.525v96H0z"/></clipPath></defs></svg>