<svg xmlns="http://www.w3.org/2000/svg" width="86" height="96" fill="none"><path fill="#00A7CB" d="m85.91 68.25-.092-.365c-.03-.213-.091-.426-.121-.64-.03-.182-.092-.334-.122-.486l-.183-.73c-2.343-9.068-7.515-17.01-14.544-22.821-1.796-1.491-3.743-2.83-5.751-4.047l-1.643 1.947L50.43 56.626a2.205 2.205 0 0 1-2.891.426c-.943-.608-1.248-1.825-.76-2.83l8.337-16.765 1.125-2.252h-9.676a2.26 2.26 0 0 1-2.008-1.278 1.8 1.8 0 0 1-.182-.791v-7.09c0-.79-.64-1.4-1.4-1.4-.791 0-1.4.64-1.4 1.4v7.09c-10.041.304-19.26 4.017-26.503 10.01A43.64 43.64 0 0 0 .346 66.699c-.03.152-.091.335-.121.487-.061.213-.092.426-.122.639l-.091.365c-.061.365.121.73.456.882a.81.81 0 0 0 .974-.273c.06-.092.152-.183.213-.305.06-.06.091-.121.152-.182.182-.244.365-.457.548-.67.152-.152.304-.335.426-.487 2.89-3.042 6.937-4.929 11.47-4.929 2.922 0 5.63.791 7.973 2.16a16.1 16.1 0 0 1 5.69 5.66.8.8 0 0 0 .7.396.84.84 0 0 0 .7-.396 15.85 15.85 0 0 1 5.69-5.66 15.7 15.7 0 0 1 4.047-1.643 13.7 13.7 0 0 1 2.525-.426v28.086c0 1.551.64 2.95 1.643 3.955A5.64 5.64 0 0 0 47.175 96a5.6 5.6 0 0 0 3.956-1.643 5.64 5.64 0 0 0 1.643-3.956c0-.79-.64-1.4-1.4-1.4s-1.4.64-1.4 1.4c0 .396-.091.761-.213 1.096-.213.487-.578.943-1.004 1.217a2.76 2.76 0 0 1-1.552.487c-.395 0-.76-.092-1.095-.213-.487-.213-.943-.579-1.217-1.004a2.76 2.76 0 0 1-.487-1.552V62.347c.852.091 1.704.213 2.525.426 1.43.365 2.8.913 4.047 1.643a16.1 16.1 0 0 1 5.69 5.66.8.8 0 0 0 .7.395.8.8 0 0 0 .7-.396 15.85 15.85 0 0 1 5.69-5.66 15.7 15.7 0 0 1 7.972-2.16c2.647 0 5.142.64 7.333 1.796a16.8 16.8 0 0 1 4.169 3.134c.152.152.304.334.456.487.183.213.365.456.548.67.06.06.091.12.122.182.06.09.152.182.213.304a.81.81 0 0 0 .973.274c.274-.122.457-.487.365-.852"/><path fill="#FAC311" d="M57.703 33.045h2.1l-.305.639-1.126 2.251-1.126 2.282-4.29 8.612-4.199 8.398 6.055-7.212 6.664-7.941 1.674-1.978 1.643-1.978 9.28-11.076H60.807L74.834 0 48.33 30.945l-1.46 1.704-.305.396h11.137"/></svg>