<svg xmlns="http://www.w3.org/2000/svg" width="145" height="96" fill="none"><path fill="#B5B5B6" d="M126.526 60.242c-.494 0-.989 0-1.483.055-3.021-12.743-14.501-22.246-28.178-22.246-2.527 0-4.998.33-7.36.934l5.932 4.34a5.7 5.7 0 0 1 1.538 1.702c.384.714.604 1.538.604 2.362s-.22 1.648-.604 2.362-.934 1.263-1.538 1.703l-10.601 7.745a7 7 0 0 1-1.263.714c-.495.164-1.044.33-1.703.33-.275 0-.55-.056-.824-.11a38 38 0 0 1-.934 2.196q.742.495 1.154 1.154c.22.33.384.659.549.989.165.439.275.823.33 1.263l1.977 12.963c.055.274.055.55.055.824 0 .933-.275 1.922-.824 2.801-.55.824-1.373 1.538-2.307 1.868a5.6 5.6 0 0 1-1.868.33c-.274 0-.549 0-.823-.056L65.39 82.488c-.439-.055-.933-.22-1.428-.385a4.8 4.8 0 0 1-1.428-.988c-.22-.22-.44-.55-.604-.824-.714.33-1.373.604-2.142.879.11.384.165.769.165 1.098 0 .66-.11 1.209-.33 1.703-.165.494-.44.879-.714 1.263l-2.966 4.01C59.404 93.364 64.568 96 70.39 96h56.191c9.887 0 17.906-8.02 17.906-17.906-.054-9.832-8.074-17.852-17.961-17.852"/><path fill="#EA8C3A" d="M38.807 12.95H55.12c.66 0 1.044-.22 1.154-.605.054-.22.054-.44-.055-.714-.055-.11-.11-.275-.22-.385l-.879-1.208-.055-.055L48.254.7c-.714-.933-1.813-.933-2.527 0l-6.81 9.283-.056.055-.878 1.208c-.11.11-.165.275-.22.385-.11.275-.11.494-.055.714.055.33.44.604 1.099.604M13.32 15.091l1.703 11.206v.11l.11.768.11.88c0 .164.054.329.11.439.274.659.823.824 1.427.384.11-.055.165-.165.275-.22l.44-.439.164-.165.714-.714.165-.165 8.075-8.074.164-.165.77-.769.11-.11.933-.933c.22-.22.384-.44.44-.66.11-.439-.056-.823-.605-1.043a1 1 0 0 0-.44-.11l-12.962-1.977c-1.044-.22-1.813.604-1.703 1.757M11.672 37.667c-.11.055-.274.11-.384.22l-10.601 7.8c-.55.439-.77.988-.66 1.537q.083.577.66.989l8.788 6.481.22.165.934.714.11.11.494.385c.11.11.274.164.384.22.604.274 1.099.054 1.264-.605.054-.165.054-.33.054-.494V38.875c.055-1.098-.549-1.538-1.263-1.208M28.974 77.05c-.055-.11-.164-.165-.22-.275L17.22 65.24c-.714-.714-1.428-.604-1.703.165-.055.11-.11.275-.11.44l-.33 2.032-.054.494v.055L13.43 78.753c-.055.165 0 .384 0 .549.11.879.824 1.428 1.813 1.263l10.326-1.593.33-.054 1.318-.22h.165l.878-.11c.165 0 .33-.055.44-.11.33-.11.494-.33.604-.55-.055-.274-.11-.549-.33-.878M56.274 82.268c.054-.055.054-.165.054-.22.165-.659-.274-1.153-1.153-1.153H38.86c-.933 0-1.373.494-1.153 1.153 0 .055.055.11.055.22.055.11.11.275.22.385l.878 1.208.22.33.44.604.11.165 6.096 8.294c.714.933 1.813.933 2.527 0l5.383-7.36.714-.934.11-.165.55-.714.164-.22.879-1.208c.055-.11.165-.275.22-.385M65.391 78.478c.11.055.275.11.44.11l.879.11h.165l1.318.22.33.054 10.326 1.593c.989.165 1.703-.384 1.812-1.263 0-.165.055-.33 0-.55l-1.593-10.326v-.055l-.054-.494-.33-2.032c0-.165-.055-.33-.11-.44-.33-.769-.989-.879-1.703-.165l-.274.275L65.282 76.83c-.44.44-.55.824-.44 1.209.055.11.275.33.55.44M82.31 56.232c.11-.055.274-.11.384-.22l.494-.384.22-.165.879-.659.22-.165 8.788-6.481c.384-.275.604-.66.659-.989.11-.549-.11-1.098-.66-1.538l-7.415-5.437-3.13-2.308c-.11-.11-.275-.164-.385-.22-.769-.329-1.318.11-1.318 1.1v16.258000000000003c-.055 1.099.494 1.538 1.263 1.208M65.282 17.124l.274.274.714.714.165.165.714.714.165.165 8.074 8.075.165.164.77.77.109.11.44.439c.713.714 1.427.604 1.702-.165.055-.11.11-.275.11-.44l.11-.879.11-.768v-.11l1.703-11.206v-.055c.164-1.153-.66-1.922-1.813-1.757L65.83 15.31c-.165 0-.33.055-.44.11-.494.22-.714.604-.604 1.044.11.164.22.439.495.659M75.773 47.17v-.275c0-15.875-12.908-28.783-28.782-28.783S18.209 31.021 18.209 46.895v.274c.11 15.765 12.963 28.508 28.782 28.508 1.593 0 3.13-.11 4.614-.385C65.227 73.15 75.663 61.395 75.773 47.17"/></svg>