<svg xmlns="http://www.w3.org/2000/svg" width="81" height="96" fill="none"><path fill="#fff" d="M34.76 41.16a2.018 2.018 0 1 0-.001-4.036 2.018 2.018 0 0 0 0 4.036M34.314 46.828c-.653.089-1.098.712-1.009 1.365.267 1.84 1.217 3.442 2.552 4.6a7.6 7.6 0 0 0 4.986 1.87c1.899 0 3.65-.713 4.985-1.84a7.67 7.67 0 0 0 2.552-4.6c.09-.653-.356-1.276-1.009-1.365-.653-.09-1.276.356-1.365 1.009a5.3 5.3 0 0 1-1.75 3.145 5.16 5.16 0 0 1-3.413 1.276 5.16 5.16 0 0 1-3.413-1.276 5.3 5.3 0 0 1-1.75-3.145 1.206 1.206 0 0 0-1.366-1.04M46.926 41.19a2.02 2.02 0 0 0 2.018-2.018 2.02 2.02 0 0 0-2.018-2.018 2.02 2.02 0 0 0-2.018 2.018 2.02 2.02 0 0 0 2.018 2.018"/><path fill="#A9C3CB" d="M25.946 56.294C21.197 60.45 18.2 66.532 18.2 73.358 18.2 85.85 28.35 96 40.843 96s22.642-10.149 22.642-22.642a22.62 22.62 0 0 0-7.745-17.064 18.14 18.14 0 0 0 3.264-10.386c0-10.03-8.131-18.161-18.161-18.161s-18.162 8.13-18.162 18.16c0 3.888 1.217 7.45 3.264 10.387m20.98-19.17a2.02 2.02 0 0 1 2.018 2.018 2.02 2.02 0 0 1-2.018 2.018 2.02 2.02 0 0 1-2.018-2.018 2.02 2.02 0 0 1 2.018-2.018M37.43 50.982a5.16 5.16 0 0 0 3.413 1.276 5.16 5.16 0 0 0 3.412-1.276 5.3 5.3 0 0 0 1.751-3.145c.09-.653.712-1.098 1.365-1.01.653.09 1.098.713 1.01 1.366a7.67 7.67 0 0 1-2.553 4.6 7.6 7.6 0 0 1-4.985 1.84c-1.9 0-3.65-.713-4.986-1.87a7.67 7.67 0 0 1-2.552-4.6c-.089-.653.356-1.276 1.009-1.365s1.276.356 1.365 1.01c.178 1.275.83 2.373 1.75 3.174m-2.67-13.858a2.02 2.02 0 0 1 2.017 2.018 2.02 2.02 0 0 1-2.018 2.018 2.02 2.02 0 0 1-2.018-2.018 2.04 2.04 0 0 1 2.018-2.018M78.059 28.868a3.947 3.947 0 1 0-5.582-5.581 3.947 3.947 0 0 0 5.582 5.581M74.465 57.125a3.947 3.947 0 1 0 0-7.893 3.947 3.947 0 0 0 0 7.893M15.44 15.224a3.945 3.945 0 0 0 3.947-3.947A3.945 3.945 0 0 0 15.44 7.33a3.964 3.964 0 0 0-3.946 3.947 3.964 3.964 0 0 0 3.946 3.947M67.461 43.118a3.945 3.945 0 0 0 3.947-3.946 3.945 3.945 0 0 0-3.947-3.947 3.945 3.945 0 0 0-3.946 3.947c-.03 2.166 1.75 3.946 3.946 3.946M32.207 7.894a3.947 3.947 0 1 0 0-7.894 3.947 3.947 0 0 0 0 7.894M18.2 39.646a3.945 3.945 0 0 0-3.947-3.946 3.945 3.945 0 0 0-3.946 3.946 3.945 3.945 0 0 0 3.946 3.947c2.167.03 3.947-1.75 3.947-3.947M51.852 8.398A3.945 3.945 0 0 0 55.8 4.451 3.945 3.945 0 0 0 51.852.505a3.964 3.964 0 0 0-3.947 3.946 3.964 3.964 0 0 0 3.947 3.947M69.322 15.084a3.947 3.947 0 1 0-5.582-5.581 3.947 3.947 0 0 0 5.582 5.581M27.63 24.137a3.947 3.947 0 1 0-7.293-3.02 3.947 3.947 0 0 0 7.293 3.02M61.414 27.103a3.947 3.947 0 1 0-5.582-5.581 3.947 3.947 0 0 0 5.582 5.581M5.16 30.296a3.947 3.947 0 1 0-1.264-7.792 3.947 3.947 0 0 0 1.265 7.792M9.13 54.678a3.947 3.947 0 1 0-7.293-3.02 3.947 3.947 0 0 0 7.293 3.02M42.534 21.337a3.945 3.945 0 0 0 3.947-3.947 3.945 3.945 0 0 0-3.947-3.947 3.964 3.964 0 0 0-3.947 3.947 3.964 3.964 0 0 0 3.947 3.947"/></svg>