<svg xmlns="http://www.w3.org/2000/svg" width="116" height="96" fill="none"><path fill="#00A7CB" d="m115.625 58.583-.123-.492c-.041-.286-.123-.573-.164-.86-.041-.245-.122-.45-.163-.654l-.246-.983c-3.152-12.2-10.112-22.884-19.568-30.704-9.744-8.064-22.148-13.059-35.658-13.468V1.883C59.703.82 58.843 0 57.82 0s-1.883.86-1.883 1.883v9.539c-13.51.41-25.914 5.404-35.657 13.468A58.72 58.72 0 0 0 .466 56.577c-.041.204-.123.45-.164.655a6 6 0 0 0-.164.86l-.122.49c-.082.492.163.983.614 1.188s1.023.04 1.31-.369c.082-.123.204-.245.286-.41.041-.081.123-.163.205-.245.246-.327.491-.614.737-.9.205-.205.41-.45.573-.655 3.89-4.094 9.334-6.632 15.434-6.632A21.14 21.14 0 0 1 29.9 53.465a21.65 21.65 0 0 1 7.655 7.615c.205.327.532.532.942.532s.736-.205.941-.532c1.842-3.152 4.503-5.773 7.655-7.615a21.1 21.1 0 0 1 5.445-2.21 18.4 18.4 0 0 1 3.398-.574v37.786c0 2.088.86 3.971 2.21 5.322A7.6 7.6 0 0 0 63.47 96c2.088 0 3.97-.86 5.322-2.21a7.6 7.6 0 0 0 2.21-5.323c0-1.064-.86-1.883-1.883-1.883s-1.883.86-1.883 1.883c0 .533-.123 1.024-.287 1.474-.286.655-.777 1.27-1.35 1.638-.615.41-1.31.655-2.088.655-.533 0-1.024-.123-1.474-.287-.655-.286-1.27-.778-1.638-1.35-.409-.615-.655-1.31-.655-2.089V50.722c1.147.123 2.293.287 3.398.573a21.1 21.1 0 0 1 5.445 2.211 21.65 21.65 0 0 1 7.655 7.615c.205.327.533.532.942.532.368 0 .737-.205.942-.532 1.842-3.153 4.503-5.773 7.655-7.615A21.14 21.14 0 0 1 96.507 50.6c3.561 0 6.918.86 9.866 2.415a22.6 22.6 0 0 1 5.608 4.217c.205.204.41.45.574.655.245.286.491.614.736.9.082.082.123.164.164.246.082.123.205.245.287.41.286.409.86.572 1.31.368.409-.246.655-.737.573-1.228"/></svg>