<svg xmlns="http://www.w3.org/2000/svg" width="130" height="96" fill="none"><path fill="#fff" d="M23.854 27.494c0-.065-.065-.13-.065-.26-.13-.91-.975-1.495-1.885-1.365s-1.495.975-1.365 1.885c.065.455.195.845.325 1.3 0 .065 0 .065.065.13 1.3 4.29 5.33 7.344 9.88 7.344 4.679 0 8.579-2.99 9.879-7.344 0-.065 0-.065.065-.13.13-.39.195-.845.325-1.3.13-.91-.455-1.69-1.365-1.885-.91-.13-1.69.455-1.885 1.365 0 .065-.065.13-.065.26-.065.325-.13.65-.26.91-.975 2.86-3.64 4.874-6.76 4.874-3.055 0-5.784-2.014-6.76-4.874 0-.26-.064-.585-.13-.91M22.554 18.199a2.746 2.746 0 0 0 2.73-2.73 2.746 2.746 0 0 0-2.73-2.73 2.746 2.746 0 0 0-2.73 2.73 2.746 2.746 0 0 0 2.73 2.73M39.128 18.199a2.746 2.746 0 0 0 2.73-2.73 2.746 2.746 0 0 0-2.73-2.73 2.746 2.746 0 0 0-2.73 2.73c0 1.495 1.17 2.73 2.73 2.73"/><path fill="#00A7CB" d="M129.798 65.322c-.065-.196-.13-.455-.13-.65-.065-.195-.065-.39-.13-.585-.065-.26-.13-.52-.195-.845-2.535-9.88-8.189-18.524-15.859-24.894-7.865-6.5-17.94-10.594-28.923-10.92v-7.734c0-.845-.715-1.56-1.56-1.56s-1.56.715-1.56 1.56v7.735c-8.84.26-17.094 2.99-24.114 7.41-.455 1.104-.91 2.209-1.495 3.249.195.195.39.455.585.65a36.6 36.6 0 0 1 5.72 8.58 34.5 34.5 0 0 1 3.185 14.429v.13q0 1.852-.196 3.705c.52.65 1.04 1.364 1.43 2.08.13.26.455.454.78.454s.585-.195.78-.455a17.56 17.56 0 0 1 6.175-6.174c1.365-.78 2.86-1.43 4.42-1.82.91-.195 1.82-.39 2.73-.455v30.613c0 1.69.715 3.25 1.82 4.355A6.2 6.2 0 0 0 87.614 96c1.69 0 3.25-.715 4.355-1.82a6.2 6.2 0 0 0 1.82-4.355c0-.845-.715-1.56-1.56-1.56s-1.56.715-1.56 1.56c0 .455-.065.845-.26 1.17-.26.52-.65 1.04-1.105 1.365-.52.325-1.04.52-1.69.52-.455 0-.845-.065-1.17-.26-.52-.26-1.04-.65-1.364-1.105-.326-.52-.52-1.04-.52-1.69V59.212c.91.065 1.884.26 2.73.455 1.56.39 3.054 1.04 4.42 1.82a17.56 17.56 0 0 1 6.174 6.174c.13.26.455.455.78.455s.585-.195.78-.455a17.57 17.57 0 0 1 6.174-6.174c2.535-1.495 5.525-2.34 8.71-2.34 2.86 0 5.59.715 7.995 1.95 1.689.91 3.249 2.08 4.549 3.445.195.195.325.325.455.52.195.26.39.455.585.715.065.065.13.13.13.195.065.13.195.195.26.325.26.325.715.454 1.04.26.39-.195.585-.585.52-.975 0 0-.065-.13-.065-.26"/><path fill="#A9C3CB" d="M30.873 92.815c15.73 0 28.729-11.83 30.549-27.103q.195-1.657.195-3.315v-.39c0-.975-.065-1.95-.13-2.925-.65-6.825-3.51-13.064-7.93-17.874l-1.95-1.95c-.195-.13-.325-.325-.52-.455a20.3 20.3 0 0 0 2.535-4.68 24.2 24.2 0 0 0 1.885-9.424C55.507 11.049 44.457 0 30.808 0S6.11 11.05 6.11 24.699c0 5.264 1.625 10.14 4.42 14.104C4.094 44.458 0 52.713 0 62.007.065 78.97 13.844 92.815 30.873 92.815m8.255-80.076a2.746 2.746 0 0 1 2.73 2.73 2.746 2.746 0 0 1-2.73 2.73 2.746 2.746 0 0 1-2.73-2.73c0-1.495 1.17-2.73 2.73-2.73m-8.255 20.54c3.055 0 5.785-2.016 6.76-4.875.13-.325.195-.585.26-.91 0-.065.065-.13.065-.26.13-.91.975-1.495 1.885-1.365s1.495.975 1.365 1.885c-.065.455-.195.845-.325 1.3 0 .065 0 .065-.065.13a10.26 10.26 0 0 1-9.88 7.344c-4.55 0-8.58-3.055-9.88-7.344 0-.066 0-.066-.064-.13-.13-.455-.26-.845-.325-1.3-.13-.91.455-1.69 1.365-1.885.91-.13 1.69.455 1.885 1.365 0 .065.065.13.065.26.065.325.13.65.26.91.78 2.86 3.51 4.874 6.63 4.874m-8.32-20.54a2.746 2.746 0 0 1 2.73 2.73 2.746 2.746 0 0 1-2.73 2.73 2.746 2.746 0 0 1-2.729-2.73 2.746 2.746 0 0 1 2.73-2.73"/></svg>