<svg xmlns="http://www.w3.org/2000/svg" width="139" height="96" fill="none"><g clip-path="url(#a)"><path fill="#EA8C3A" d="M84.497 12.63h15.891c1.127 0 1.542-.77.83-1.66L93.688.712c-.653-.95-1.78-.95-2.49 0L83.666 10.97c-.712.89-.297 1.66.83 1.66M74.06 14.883l-12.63-1.956c-1.127-.178-1.898.593-1.72 1.72l1.957 12.63c.059.236.118.414.178.592.415.119.77.237 1.126.356.178-.06.297-.178.475-.356l11.206-11.207c.83-.77.593-1.6-.593-1.779m49.156 49.157c-.178-1.127-.949-1.424-1.779-.593l-11.207 11.206c-.83.83-.534 1.601.593 1.78l12.63 1.956c1.127.178 1.897-.593 1.72-1.72zm14.231-19.627-10.258-7.531c-.949-.652-1.661-.296-1.661.83v15.891c0 1.127.771 1.542 1.661.83l10.258-7.53c.949-.652.949-1.779 0-2.49m-14.053-31.427-12.63 1.957c-1.127.177-1.423.948-.593 1.778l11.207 11.207c.83.83 1.601.534 1.779-.593l1.956-12.63c.237-1.126-.593-1.897-1.719-1.72m-2.965 32.672c0-15.476-12.512-27.988-27.988-27.988-9.961 0-18.678 5.218-23.659 13.045a36 36 0 0 1 5.693 3.736 37.1 37.1 0 0 1 11.977 17.314c6.227.237 11.919 2.846 16.01 6.938 2.728 2.727 4.803 6.107 5.93 9.902 7.293-5.04 12.037-13.4 12.037-22.947"/><path fill="#B5B5B6" d="M85.623 55.145c-.593 0-1.126.06-1.72.06-2.253-9.37-8.479-17.196-16.78-21.525a32.95 32.95 0 0 0-15.417-3.795c-14.824 0-27.395 9.784-31.605 23.244C8.894 53.841 0 63.15 0 74.535 0 86.395 9.606 96 21.465 96h64.158c11.266 0 20.457-9.132 20.457-20.457 0-1.779-.237-3.499-.652-5.1-2.312-8.775-10.317-15.298-19.805-15.298"/></g><defs><clipPath id="a"><path fill="#fff" d="M0 0h138.159v96H0z"/></clipPath></defs></svg>