<svg width="40" height="40" viewBox="0 0 40 40" fill="none" xmlns="http://www.w3.org/2000/svg">
<path fill-rule="evenodd" clip-rule="evenodd" d="M9.99998 13.3333H13.3333V10C13.3333 9.08334 14.0833 8.33334 15 8.33334C15.9166 8.33334 16.6666 9.08334 16.6666 10V15C16.6666 15.9167 15.9166 16.6667 15 16.6667H9.99998C9.08331 16.6667 8.33331 15.9167 8.33331 15C8.33331 14.0833 9.08331 13.3333 9.99998 13.3333ZM13.3333 26.6667H9.99998C9.08331 26.6667 8.33331 25.9167 8.33331 25C8.33331 24.0833 9.08331 23.3333 9.99998 23.3333H15C15.9166 23.3333 16.6666 24.0833 16.6666 25V30C16.6666 30.9167 15.9166 31.6667 15 31.6667C14.0833 31.6667 13.3333 30.9167 13.3333 30V26.6667ZM25 31.6667C25.9166 31.6667 26.6666 30.9167 26.6666 30V26.6667H30C30.9166 26.6667 31.6666 25.9167 31.6666 25C31.6666 24.0833 30.9166 23.3333 30 23.3333H25C24.0833 23.3333 23.3333 24.0833 23.3333 25V30C23.3333 30.9167 24.0833 31.6667 25 31.6667ZM26.6666 10V13.3333H30C30.9166 13.3333 31.6666 14.0833 31.6666 15C31.6666 15.9167 30.9166 16.6667 30 16.6667H25C24.0833 16.6667 23.3333 15.9167 23.3333 15V10C23.3333 9.08334 24.0833 8.33334 25 8.33334C25.9166 8.33334 26.6666 9.08334 26.6666 10Z" fill="white" />
</svg>
