<svg width="40" height="40" viewBox="0 0 40 40" fill="none" xmlns="http://www.w3.org/2000/svg">
<path fill-rule="evenodd" clip-rule="evenodd" d="M11.6666 15C11.6666 15.9167 10.9166 16.6667 9.99998 16.6667C9.08331 16.6667 8.33331 15.9167 8.33331 15V10C8.33331 9.08334 9.08331 8.33334 9.99998 8.33334H15C15.9166 8.33334 16.6666 9.08334 16.6666 10C16.6666 10.9167 15.9166 11.6667 15 11.6667H11.6666V15ZM8.33331 25C8.33331 24.0833 9.08331 23.3333 9.99998 23.3333C10.9166 23.3333 11.6666 24.0833 11.6666 25V28.3333H15C15.9166 28.3333 16.6666 29.0833 16.6666 30C16.6666 30.9167 15.9166 31.6667 15 31.6667H9.99998C9.08331 31.6667 8.33331 30.9167 8.33331 30V25ZM28.3333 28.3333H25C24.0833 28.3333 23.3333 29.0833 23.3333 30C23.3333 30.9167 24.0833 31.6667 25 31.6667H30C30.9166 31.6667 31.6666 30.9167 31.6666 30V25C31.6666 24.0833 30.9166 23.3333 30 23.3333C29.0833 23.3333 28.3333 24.0833 28.3333 25V28.3333ZM25 11.6667C24.0833 11.6667 23.3333 10.9167 23.3333 10C23.3333 9.08334 24.0833 8.33334 25 8.33334H30C30.9166 8.33334 31.6666 9.08334 31.6666 10V15C31.6666 15.9167 30.9166 16.6667 30 16.6667C29.0833 16.6667 28.3333 15.9167 28.3333 15V11.6667H25Z" fill="white" />
</svg>
