<svg width="16" height="14" viewBox="0 0 16 14" fill="none" xmlns="http://www.w3.org/2000/svg">
<g clip-path="url(#clip0_5_7)">
<path d="M3.1969 8.97927H3.12296C1.62473 8.93892 0.425 7.67705 0.425 6.26811C0.425 4.83355 1.56613 3.65153 3.01941 3.56236L3.22499 3.54974L3.28708 3.35335C3.84675 1.58308 5.42179 0.3 7.52008 0.3C9.61598 0.3 11.3674 1.72348 11.8308 3.62934L11.8916 3.87936L12.148 3.85736C12.2218 3.85103 12.2944 3.84752 12.3679 3.84752C13.8214 3.84752 14.9907 5.0024 14.9907 6.41339C14.9907 7.82445 13.8224 8.97927 12.3679 8.97927H3.1969Z" stroke="white" stroke-width="0.6"/>
<path d="M1.6787 9.97882L0.864805 11.361C0.793767 11.4814 0.835375 11.6366 0.959185 11.7063C1.08198 11.776 1.24029 11.7352 1.31133 11.6138L2.12523 10.2316C2.19627 10.1112 2.15466 9.95593 2.03085 9.88627C1.90805 9.81662 1.74974 9.85741 1.6787 9.97882Z" fill="white"/>
<path d="M3.84841 13.3671C3.97121 13.4368 4.12952 13.395 4.20056 13.2746L5.99275 10.2306C6.06379 10.1102 6.02117 9.95493 5.89837 9.88528C5.77558 9.81562 5.61727 9.85741 5.54623 9.97782L3.75403 13.0218C3.683 13.1422 3.72562 13.2975 3.84841 13.3671Z" fill="white"/>
<path d="M3.91439 9.88627C3.7916 9.81661 3.63328 9.85841 3.56224 9.97881L2.19628 12.2994C2.12524 12.4198 2.16786 12.575 2.29066 12.6447C2.41345 12.7143 2.57177 12.6725 2.64281 12.5521L4.00877 10.2316C4.07981 10.1112 4.03719 9.95593 3.91439 9.88627Z" fill="white"/>
<path d="M9.59236 13.7194C9.71516 13.789 9.87347 13.7482 9.94451 13.6268L11.9437 10.2316C12.0148 10.1112 11.9732 9.95593 11.8494 9.88627C11.7266 9.81662 11.5682 9.85741 11.4972 9.97882L9.49798 13.3741C9.42695 13.4945 9.46855 13.6497 9.59236 13.7194Z" fill="white"/>
<path d="M13.4812 9.97881L12.0412 12.4248C11.9701 12.5452 12.0127 12.7004 12.1355 12.7701C12.2583 12.8397 12.4166 12.7979 12.4877 12.6775L13.9277 10.2316C13.9988 10.1112 13.9561 9.95593 13.8334 9.88627C13.7106 9.81661 13.5522 9.85841 13.4812 9.97881Z" fill="white"/>
<path d="M7.46324 13.9662C7.58604 14.0358 7.74435 13.995 7.81539 13.8736L9.95973 10.2316C10.0308 10.1112 9.98916 9.95593 9.86535 9.88627C9.74256 9.81662 9.58424 9.85741 9.51321 9.97882L7.36886 13.6209C7.29783 13.7413 7.33943 13.8965 7.46324 13.9662Z" fill="white"/>
<path d="M5.56653 13.8189C5.68933 13.8885 5.84764 13.8477 5.91868 13.7263L7.97676 10.2316C8.0478 10.1112 8.00619 9.95593 7.88238 9.88627C7.75958 9.81662 7.60127 9.85741 7.53023 9.97882L5.47215 13.4736C5.40111 13.594 5.44272 13.7492 5.56653 13.8189Z" fill="white"/>
</g>
<defs>
<clipPath id="clip0_5_7">
<rect width="15.1667" height="14" fill="white" transform="translate(0.125)"/>
</clipPath>
</defs>
</svg>
