<?xml version="1.0" encoding="utf-8"?>
<!-- Generator: Adobe Illustrator 28.3.0, SVG Export Plug-In . SVG Version: 6.00 Build 0)  -->
<svg version="1.1" id="レイヤー_1" xmlns="http://www.w3.org/2000/svg" xmlns:xlink="http://www.w3.org/1999/xlink" x="0px"
	 y="0px" viewBox="0 0 15 14" style="enable-background:new 0 0 15 14;" xml:space="preserve">
<style type="text/css">
	.st0{fill:#FFFFFF;}
</style>
<path class="st0" d="M1.5,4.1c0-0.1-0.1-0.2-0.2-0.2c-0.1,0-0.2,0.1-0.2,0.2v3.6c0.1-0.3,0.3-0.5,0.5-0.8V4.1z"/>
<path class="st0" d="M3.3,5.1V1.8c0-0.1-0.1-0.2-0.2-0.2c-0.1,0-0.2,0.1-0.2,0.2v3.7c0,0,0,0,0.1,0C3,5.3,3.2,5.2,3.3,5.1z"/>
<path class="st0" d="M5.1,0.7c0-0.1-0.1-0.2-0.2-0.2c-0.1,0-0.2,0.1-0.2,0.2v3.7c0.2-0.1,0.3-0.1,0.5-0.2V0.7z"/>
<path class="st0" d="M6.9,0.2C6.9,0.1,6.7,0,6.6,0C6.5,0,6.4,0.1,6.4,0.2v3.6c0.2,0,0.3,0,0.5-0.1V0.2z"/>
<path class="st0" d="M8.6,0.2C8.6,0.1,8.5,0,8.4,0C8.3,0,8.1,0.1,8.1,0.2v3.6c0.2,0,0.3,0,0.5,0.1V0.2z"/>
<path class="st0" d="M10.4,0.7c0-0.1-0.1-0.2-0.2-0.2c-0.1,0-0.2,0.1-0.2,0.2v3.5c0.2,0.1,0.3,0.1,0.5,0.2V0.7z"/>
<path class="st0" d="M12.2,5.5V1.8c0-0.1-0.1-0.2-0.2-0.2c-0.1,0-0.2,0.1-0.2,0.2v3.3C11.8,5.2,12,5.3,12.2,5.5
	C12.1,5.5,12.1,5.5,12.2,5.5z"/>
<path class="st0" d="M13.9,4.1c0-0.1-0.1-0.2-0.2-0.2c-0.1,0-0.2,0.1-0.2,0.2v2.8c0.2,0.3,0.3,0.5,0.5,0.8V4.1z"/>
<g>
	<path class="st0" d="M7.5,4.8l0.2,0c0.1,0,0.3,0,0.4,0c0.1,0,0.3,0,0.4,0.1C8.9,4.9,9.3,5,9.7,5.2c0.1,0.1,0.3,0.1,0.4,0.2
		c0.4,0.2,0.8,0.4,1.2,0.7c0.1,0,0.1,0.1,0.2,0.1c0.1,0.1,0.2,0.2,0.3,0.2c0.5,0.4,0.9,0.9,1.2,1.5c0.1,0.1,0.1,0.3,0.2,0.4
		c-0.4-0.2-0.8-0.2-1.2-0.2c-0.5,0-1.1,0.1-1.5,0.4c-0.3,0.1-0.5,0.3-0.7,0.6C9.5,8.9,9.3,8.7,9,8.5C8.8,8.4,8.5,8.3,8.3,8.2
		C8.1,8.2,8,8.2,7.9,8.2V8.1l-0.4,0l-0.4,0v0.1c-0.1,0-0.3,0-0.4,0.1C6.5,8.3,6.2,8.4,6,8.5C5.7,8.7,5.5,8.9,5.3,9.1
		C5.1,8.9,4.8,8.7,4.6,8.5C4.1,8.3,3.6,8.1,3,8.1c-0.4,0-0.8,0.1-1.2,0.2C1.9,8.2,2,8.1,2.1,7.9c0.3-0.6,0.7-1.1,1.2-1.5
		c0.1-0.1,0.2-0.2,0.3-0.2c0.1,0,0.1-0.1,0.2-0.1C4,5.8,4.4,5.6,4.9,5.4C5,5.3,5.1,5.2,5.3,5.2C5.7,5,6.1,4.9,6.5,4.9
		c0.1,0,0.3,0,0.4-0.1c0.1,0,0.3,0,0.4,0L7.5,4.8 M7.5,2.9C7.4,2.9,7.3,3,7.3,3.1v1.1c-0.1,0-0.3,0-0.4,0c-0.2,0-0.3,0-0.5,0.1
		C5.9,4.3,5.5,4.5,5.1,4.6C4.9,4.7,4.8,4.7,4.6,4.8C4.1,5,3.7,5.3,3.3,5.6c-0.1,0-0.1,0.1-0.2,0.1C3,5.8,2.9,5.9,2.8,6
		C2.3,6.5,1.9,7,1.5,7.7C1.4,7.9,1.3,8.2,1.2,8.4C1.1,8.7,1,9,0.9,9.3c0,0,0,0.1,0,0.1c0,0,0,0.1,0,0.1c0,0,0,0.1,0,0.1
		c0,0,0,0,0,0.1c0,0.1,0,0.1,0.1,0.1c0,0,0,0,0.1,0c0,0,0.1,0,0.1-0.1c0,0,0,0,0,0c0,0,0,0,0,0c0,0,0.1-0.1,0.1-0.1
		c0,0,0-0.1,0.1-0.1C1.7,9,2.3,8.7,3,8.7c0.5,0,0.9,0.1,1.2,0.3c0.4,0.2,0.7,0.5,0.9,0.9c0,0,0.1,0.1,0.1,0.1c0,0,0.1,0,0.1-0.1
		c0.2-0.4,0.5-0.7,0.9-0.9C6.5,9,6.7,8.9,6.9,8.8c0.1,0,0.3-0.1,0.4-0.1v0.4v4v0c0,0.2,0.1,0.5,0.3,0.6C7.7,13.9,7.9,14,8.2,14
		c0,0,0,0,0,0c0,0,0,0,0,0c0.2,0,0.5-0.1,0.6-0.3C8.9,13.6,9,13.4,9,13.1c0-0.1-0.1-0.2-0.2-0.2c-0.1,0-0.2,0.1-0.2,0.2
		c0,0.1,0,0.1,0,0.2c0,0.1-0.1,0.1-0.2,0.2c-0.1,0-0.2,0.1-0.2,0.1c-0.1,0-0.1,0-0.2,0c-0.1,0-0.1-0.1-0.2-0.2
		c0-0.1-0.1-0.2-0.1-0.2v-4V8.7c0.1,0,0.3,0,0.4,0.1C8.3,8.9,8.5,9,8.7,9.1c0.4,0.2,0.7,0.5,0.9,0.9c0,0,0.1,0.1,0.1,0.1
		c0,0,0.1,0,0.1-0.1c0.2-0.4,0.5-0.7,0.9-0.9c0.4-0.2,0.8-0.3,1.2-0.3c0.4,0,0.8,0.1,1.1,0.3c0.2,0.1,0.5,0.3,0.6,0.5
		c0,0,0,0.1,0.1,0.1c0,0,0.1,0.1,0.1,0.1c0,0,0,0,0,0c0,0,0,0,0,0c0,0,0,0,0,0c0,0,0,0,0,0c0,0,0.1,0.1,0.1,0.1c0,0,0,0,0.1,0
		c0.1,0,0.1-0.1,0.1-0.1c0,0,0,0,0-0.1c0,0,0-0.1,0-0.1v0c0,0,0-0.1,0-0.1c0,0,0-0.1,0-0.1C14,9,13.9,8.7,13.8,8.4
		c-0.1-0.3-0.2-0.5-0.4-0.8C13.1,7,12.7,6.5,12.2,6c-0.1-0.1-0.2-0.2-0.3-0.3c-0.1,0-0.1-0.1-0.2-0.1c-0.4-0.3-0.8-0.6-1.3-0.8
		c-0.2-0.1-0.3-0.1-0.5-0.2C9.5,4.5,9.1,4.3,8.6,4.3c-0.2,0-0.3,0-0.5-0.1c-0.1,0-0.3,0-0.4,0V3.1C7.7,3,7.6,2.9,7.5,2.9L7.5,2.9z"
		/>
</g>
</svg>
