<svg width="40" height="40" viewBox="0 0 40 40" fill="none" xmlns="http://www.w3.org/2000/svg">
<path d="M30.5 9.51665C30.1886 9.20457 29.7658 9.02918 29.325 9.02918C28.8841 9.02918 28.4613 9.20457 28.15 9.51665L20 17.65L11.85 9.49999C11.5386 9.1879 11.1158 9.01251 10.675 9.01251C10.2341 9.01251 9.81134 9.1879 9.49995 9.49999C8.84995 10.15 8.84995 11.2 9.49995 11.85L17.65 20L9.49995 28.15C8.84995 28.8 8.84995 29.85 9.49995 30.5C10.15 31.15 11.2 31.15 11.85 30.5L20 22.35L28.15 30.5C28.8 31.15 29.85 31.15 30.5 30.5C31.15 29.85 31.15 28.8 30.5 28.15L22.35 20L30.5 11.85C31.1333 11.2167 31.1333 10.15 30.5 9.51665Z" fill="white"/>
</svg>
