<svg width="96" height="96" viewBox="0 0 96 96" fill="none" xmlns="http://www.w3.org/2000/svg">
<path d="M70.3079 36.9372C69.7908 36.8634 69.3106 37.1958 69.2367 37.7499C69.089 38.7472 68.5718 39.6337 67.8331 40.2616C67.0943 40.8895 66.1709 41.2589 65.0998 41.2589C64.0655 41.2589 63.1051 40.8895 62.3664 40.2247C61.6276 39.5967 61.1105 38.7102 60.9627 37.7129C60.8889 37.1958 60.4087 36.8264 59.8916 36.9003C59.3744 36.9742 59.0051 37.4544 59.079 37.9715C59.3006 39.449 60.0393 40.7049 61.1105 41.6283C62.1817 42.5517 63.5853 43.1058 65.0998 43.1058C66.6142 43.1058 68.0178 42.5517 69.089 41.6283C70.1601 40.7049 70.8989 39.4121 71.1205 37.9715C71.1574 37.4913 70.825 37.0111 70.3079 36.9372ZM60.224 32.4309C61.1105 32.4309 61.8493 31.6922 61.8493 30.8057C61.8493 29.9192 61.1105 29.1804 60.224 29.1804C59.3375 29.1804 58.5988 29.9192 58.5988 30.8057C58.5988 31.6922 59.3375 32.4309 60.224 32.4309ZM69.9385 32.4309C70.825 32.4309 71.5638 31.6922 71.5638 30.8057C71.5638 29.9192 70.825 29.1804 69.9385 29.1804C69.052 29.1804 68.3133 29.9192 68.3133 30.8057C68.3133 31.6922 69.052 32.4309 69.9385 32.4309Z" fill="white"/>
<path d="M76.9566 44.4725C78.5818 42.1454 79.5422 39.2643 79.5422 36.1985C79.5422 28.1831 73.0412 21.7191 65.0628 21.7191C57.0843 21.7191 50.5834 28.2201 50.5834 36.1985C50.5834 39.2643 51.5437 42.1085 53.169 44.4725C53.132 44.5094 53.1321 44.5094 53.0951 44.5463C56.0132 45.9499 58.7096 47.6491 61.1474 49.6806C67.9069 55.2581 72.7457 63.0888 74.5926 72.0277C74.6295 72.2124 74.6665 72.397 74.6665 72.5817C74.6665 72.8772 74.6296 73.1727 74.5187 73.4682C79.69 70.2916 83.162 64.5664 83.162 58.0654C83.162 52.6726 80.7611 47.7968 76.9566 44.4725ZM60.224 29.1804C61.1105 29.1804 61.8492 29.9192 61.8492 30.8057C61.8492 31.6922 61.1105 32.4309 60.224 32.4309C59.3375 32.4309 58.5987 31.6922 58.5987 30.8057C58.5987 29.9192 59.3375 29.1804 60.224 29.1804ZM71.0836 38.0084C70.8619 39.449 70.1232 40.7418 69.052 41.6652C67.9808 42.5887 66.5772 43.1427 65.0628 43.1427C63.5483 43.1427 62.1448 42.5887 61.0736 41.6652C60.0024 40.7418 59.2636 39.449 59.042 38.0084C58.9681 37.4913 59.3375 37.0111 59.8546 36.9373C60.3717 36.8634 60.8519 37.2328 60.9258 37.7499C61.0736 38.7472 61.5907 39.6337 62.3294 40.2616C63.0682 40.8895 64.0285 41.2959 65.0628 41.2959C66.097 41.2959 67.0574 40.9265 67.7961 40.2985C68.5349 39.6706 69.052 38.7841 69.1998 37.7868C69.2736 37.2697 69.7538 36.9003 70.271 36.9742C70.825 37.0111 71.1574 37.4913 71.0836 38.0084ZM69.9385 32.4309C69.052 32.4309 68.3133 31.6922 68.3133 30.8057C68.3133 29.9192 69.052 29.1804 69.9385 29.1804C70.825 29.1804 71.5638 29.9192 71.5638 30.8057C71.5638 31.6922 70.825 32.4309 69.9385 32.4309Z" fill="#A9C3CB"/>
<path d="M92.8028 17.7299C91.0667 17.7299 89.6631 19.1335 89.6631 20.8695C89.6631 22.6056 91.0667 24.0092 92.8028 24.0092C94.5388 24.0092 95.9424 22.6056 95.9424 20.8695C95.9424 19.1335 94.5388 17.7299 92.8028 17.7299Z" fill="#A9C3CB"/>
<path d="M90.3279 41.1112C88.5918 41.1112 87.1882 42.5148 87.1882 44.2509C87.1882 45.9869 88.5918 47.3905 90.3279 47.3905C92.064 47.3905 93.4676 45.9869 93.4676 44.2509C93.5045 42.5518 92.064 41.1112 90.3279 41.1112Z" fill="#A9C3CB"/>
<path d="M44.8582 15.4399C46.5942 15.4399 47.9978 14.0362 47.9978 12.3002C47.9978 10.5641 46.5942 9.16052 44.8582 9.16052C43.1221 9.16052 41.7185 10.5641 41.7185 12.3002C41.6815 13.9993 43.0852 15.4399 44.8582 15.4399Z" fill="#A9C3CB"/>
<path d="M44.8212 28.6264C46.5572 28.6264 47.9609 27.2228 47.9609 25.4867C47.9609 23.7507 46.5572 22.347 44.8212 22.347C43.0851 22.347 41.6815 23.7507 41.6815 25.4867C41.6815 27.1858 43.0851 28.6264 44.8212 28.6264Z" fill="#A9C3CB"/>
<path d="M89.4414 30.8057C89.4414 29.0696 88.0378 27.666 86.3018 27.666C84.5657 27.666 83.1621 29.0696 83.1621 30.8057C83.1621 32.5417 84.5657 33.9454 86.3018 33.9454C88.0378 33.9454 89.4414 32.5417 89.4414 30.8057Z" fill="#A9C3CB"/>
<path d="M60.0763 6.31632C61.8123 6.31632 63.2159 4.91271 63.2159 3.17666C63.2159 1.4406 61.8123 0.0369873 60.0763 0.0369873C58.3402 0.0369873 56.9366 1.4406 56.9366 3.17666C56.8997 4.87577 58.3402 6.31632 60.0763 6.31632Z" fill="#A9C3CB"/>
<path d="M73.8539 6.27934C75.59 6.27934 76.9936 4.87572 76.9936 3.13967C76.9936 1.40362 75.59 0 73.8539 0C72.1179 0 70.7142 1.40362 70.7142 3.13967C70.7142 4.83878 72.1179 6.27934 73.8539 6.27934Z" fill="#A9C3CB"/>
<path d="M85.563 12.5586C87.2991 12.5586 88.7027 11.155 88.7027 9.41897C88.7027 7.68291 87.2991 6.2793 85.563 6.2793C83.827 6.2793 82.4233 7.68291 82.4233 9.41897C82.4233 11.1181 83.827 12.5586 85.563 12.5586Z" fill="#A9C3CB"/>
<path d="M55.6069 19.429C57.343 19.429 58.7466 18.0254 58.7466 16.2893C58.7466 14.5533 57.343 13.1497 55.6069 13.1497C53.8709 13.1497 52.4673 14.5533 52.4673 16.2893C52.4303 18.0254 53.8339 19.429 55.6069 19.429Z" fill="#A9C3CB"/>
<path d="M79.2467 22.1254C80.9828 22.1254 82.3864 20.7218 82.3864 18.9857C82.3864 17.2497 80.9828 15.8461 79.2467 15.8461C77.5107 15.8461 76.1071 17.2497 76.1071 18.9857C76.1071 20.6849 77.5107 22.1254 79.2467 22.1254Z" fill="#A9C3CB"/>
<path d="M67.0944 17.102C68.8304 17.102 70.234 15.6984 70.234 13.9623C70.234 12.2262 68.8304 10.8226 67.0944 10.8226C65.3583 10.8226 63.9547 12.2262 63.9547 13.9623C63.9547 15.6984 65.3583 17.102 67.0944 17.102Z" fill="#A9C3CB"/>
<path d="M72.4503 72.1755C72.4134 71.9908 72.3764 71.843 72.3395 71.6583C72.3026 71.5106 72.2656 71.3629 72.2287 71.2151C72.1917 70.9935 72.1179 70.8088 72.0809 70.5871C71.7485 69.2574 71.3053 67.9646 70.8251 66.6718C68.535 60.651 64.6935 55.369 59.8178 51.3059C57.306 49.2374 54.5357 47.5014 51.5069 46.1347C47.1852 44.177 42.4572 43.0319 37.4338 42.8473V36.9004C37.4338 36.2355 36.9166 35.7184 36.2518 35.7184C35.5869 35.7184 35.0698 36.2355 35.0698 36.9004V42.8842C26.5742 43.1427 18.8174 46.2824 12.7227 51.3428C6.81276 56.2185 2.45418 62.9411 0.459565 70.5871C0.422627 70.8088 0.348744 70.9935 0.311807 71.2151C0.274869 71.3629 0.237914 71.5106 0.200977 71.6583C0.164039 71.843 0.127129 71.9908 0.0901919 72.1755C0.0532547 72.2863 0.0532276 72.3602 0.0162903 72.471C-0.0575842 72.7665 0.127093 73.0989 0.422591 73.2097C0.71809 73.3205 1.05055 73.2466 1.23524 72.9881C1.30911 72.9142 1.34605 72.8403 1.41993 72.7295C1.45686 72.6926 1.49377 72.6187 1.53071 72.5818C1.67846 72.3971 1.82623 72.2124 2.01091 72.0277C2.12172 71.88 2.26947 71.7692 2.38029 71.6214C4.81815 69.0727 8.25329 67.4844 12.0578 67.4844C14.4957 67.4844 16.8228 68.1493 18.7804 69.2943C20.7381 70.4394 22.4003 72.1016 23.5823 74.0593C23.6931 74.2809 23.9147 74.3917 24.1733 74.3917C24.4318 74.3917 24.6535 74.2809 24.7643 74.0593C25.9093 72.1016 27.5715 70.4394 29.5661 69.2943C30.6373 68.6664 31.7824 68.2232 33.0013 67.8907C33.7031 67.7061 34.4049 67.5952 35.1436 67.5214V69.6637V91.2351C35.1436 92.5279 35.6608 93.7468 36.5473 94.5964C37.3968 95.4459 38.5788 96 39.9086 96C41.2014 96 42.4203 95.4829 43.2698 94.5964C44.1194 93.7468 44.6735 92.5648 44.6735 91.2351C44.6735 90.5702 44.1564 90.0531 43.4915 90.0531C42.8266 90.0531 42.3095 90.5702 42.3095 91.2351C42.3095 91.5675 42.2356 91.863 42.1248 92.1585C41.9401 92.5648 41.6446 92.9342 41.2753 93.1928C40.9059 93.4513 40.4626 93.5991 39.9455 93.5991C39.613 93.5991 39.3175 93.5252 39.0221 93.4144C38.6157 93.2297 38.2464 92.9342 37.9878 92.5648C37.7293 92.1955 37.5815 91.7522 37.5815 91.2351V69.6637V67.5214C38.3203 67.5952 39.0221 67.7061 39.7239 67.8907C40.9428 68.1862 42.0879 68.6664 43.1221 69.2943C45.0798 70.4394 46.742 72.1016 47.924 74.0593C48.0348 74.2809 48.2564 74.3917 48.515 74.3917C48.5888 74.3917 48.6627 74.3917 48.7366 74.3548C48.8843 74.3178 49.0321 74.207 49.1059 74.0593C49.9186 72.6926 50.9528 71.5106 52.1348 70.5133C52.6888 70.07 53.2799 69.6268 53.9078 69.2943C55.8655 68.1493 58.1925 67.4844 60.6304 67.4844C62.8466 67.4844 64.952 68.0385 66.7989 68.9989C68.1287 69.7007 69.3106 70.5872 70.308 71.6583C70.4188 71.8061 70.5665 71.9169 70.6773 72.0646C70.8251 72.2493 71.0097 72.434 71.1575 72.6187C71.1944 72.6556 71.2314 72.7295 71.2683 72.7665C71.3422 72.8403 71.3791 72.9142 71.453 73.025C71.6377 73.2836 71.9701 73.3944 72.2656 73.2467C72.5611 73.1358 72.7089 72.8034 72.6719 72.5079C72.4873 72.3602 72.4872 72.2493 72.4503 72.1755Z" fill="#00A7CB"/>
</svg>
