<svg width="81" height="96" viewBox="0 0 81 96" fill="none" xmlns="http://www.w3.org/2000/svg">
<path d="M34.7591 41.1598C35.8736 41.1598 36.777 40.2563 36.777 39.1418C36.777 38.0274 35.8736 37.1239 34.7591 37.1239C33.6446 37.1239 32.7411 38.0274 32.7411 39.1418C32.7411 40.2563 33.6446 41.1598 34.7591 41.1598Z" fill="white"/>
<path d="M34.314 46.8278C33.6611 46.9169 33.216 47.54 33.305 48.1929C33.5721 50.0328 34.5217 51.6353 35.8571 52.7926C37.1925 53.9499 38.9433 54.6621 40.8426 54.6621C42.7418 54.6621 44.4926 53.9499 45.828 52.8223C47.1634 51.6649 48.0834 50.0625 48.3802 48.2226C48.4692 47.5697 48.024 46.9465 47.3711 46.8575C46.7183 46.7685 46.0951 47.2136 46.0061 47.8665C45.7984 49.1128 45.1752 50.2108 44.2552 51.0121C43.3353 51.8133 42.1483 52.2881 40.8426 52.2881C39.5368 52.2881 38.3498 51.8133 37.4299 51.0121C36.5099 50.2108 35.8868 49.1128 35.6791 47.8665C35.59 47.1839 34.9668 46.7388 34.314 46.8278Z" fill="white"/>
<path d="M46.926 41.1895C48.0537 41.1895 48.944 40.2696 48.944 39.1716C48.944 38.044 48.024 37.1537 46.926 37.1537C45.7984 37.1537 44.9081 38.0736 44.9081 39.1716C44.9081 40.2696 45.7984 41.1895 46.926 41.1895Z" fill="white"/>
<path d="M25.9455 56.2943C21.1974 60.4489 18.2002 66.5324 18.2002 73.3577C18.2002 85.8511 28.3492 96.0001 40.8426 96.0001C53.3359 96.0001 63.4849 85.8511 63.4849 73.3577C63.4849 66.562 60.4877 60.4489 55.7396 56.2943C57.7872 53.3565 59.0039 49.7657 59.0039 45.9079C59.0039 35.8776 50.8729 27.7466 40.8426 27.7466C30.8123 27.7466 22.6812 35.8776 22.6812 45.9079C22.6812 49.7954 23.8979 53.3565 25.9455 56.2943ZM46.926 37.124C48.0537 37.124 48.944 38.044 48.944 39.1419C48.944 40.2696 48.024 41.1599 46.926 41.1599C45.7984 41.1599 44.9081 40.2399 44.9081 39.1419C44.9081 38.044 45.7984 37.124 46.926 37.124ZM37.4299 50.9824C38.3498 51.7837 39.5368 52.2585 40.8426 52.2585C42.1483 52.2585 43.3353 51.7837 44.2552 50.9824C45.1752 50.1812 45.7984 49.0832 46.0061 47.8368C46.0952 47.184 46.7183 46.7389 47.3712 46.8279C48.024 46.9169 48.4692 47.5401 48.3802 48.193C48.0834 50.0328 47.1634 51.6353 45.828 52.7926C44.4927 53.95 42.7418 54.6325 40.8426 54.6325C38.9433 54.6325 37.1925 53.9203 35.8571 52.763C34.5217 51.6056 33.6018 50.0032 33.305 48.1633C33.216 47.5104 33.6611 46.8872 34.314 46.7982C34.9668 46.7092 35.59 47.1543 35.6791 47.8072C35.8571 49.0832 36.5099 50.1812 37.4299 50.9824ZM34.7591 37.124C35.8868 37.124 36.777 38.044 36.777 39.1419C36.777 40.2696 35.8571 41.1599 34.7591 41.1599C33.6314 41.1599 32.7412 40.2399 32.7412 39.1419C32.7412 38.044 33.6611 37.124 34.7591 37.124Z" fill="#A9C3CB"/>
<path d="M78.059 28.8682C79.6003 27.3269 79.6003 24.8279 78.059 23.2866C76.5177 21.7452 74.0187 21.7453 72.4774 23.2866C70.9361 24.8279 70.9361 27.3269 72.4774 28.8682C74.0187 30.4095 76.5177 30.4095 78.059 28.8682Z" fill="#A9C3CB"/>
<path d="M74.4648 57.1252C76.6446 57.1252 78.4116 55.3582 78.4116 53.1784C78.4116 50.9986 76.6446 49.2316 74.4648 49.2316C72.285 49.2316 70.5179 50.9986 70.5179 53.1784C70.5179 55.3582 72.285 57.1252 74.4648 57.1252Z" fill="#A9C3CB"/>
<path d="M15.4404 15.2235C17.6364 15.2235 19.3872 13.443 19.3872 11.2767C19.3872 9.08068 17.6067 7.32983 15.4404 7.32983C13.2741 7.32983 11.4936 9.11036 11.4936 11.2767C11.4936 13.443 13.2741 15.2235 15.4404 15.2235Z" fill="#A9C3CB"/>
<path d="M67.4614 43.1184C69.6573 43.1184 71.4082 41.3379 71.4082 39.1716C71.4082 36.9756 69.6277 35.2247 67.4614 35.2247C65.2654 35.2247 63.5146 37.0053 63.5146 39.1716C63.4849 41.3379 65.2654 43.1184 67.4614 43.1184Z" fill="#A9C3CB"/>
<path d="M32.207 7.89366C34.3868 7.89366 36.1538 6.12661 36.1538 3.94683C36.1538 1.76706 34.3868 0 32.207 0C30.0273 0 28.2602 1.76706 28.2602 3.94683C28.2602 6.12661 30.0273 7.89366 32.207 7.89366Z" fill="#A9C3CB"/>
<path d="M18.2002 39.6464C18.2002 37.4504 16.4197 35.6996 14.2534 35.6996C12.0574 35.6996 10.3066 37.4801 10.3066 39.6464C10.3066 41.8424 12.0871 43.5932 14.2534 43.5932C16.4197 43.6229 18.2002 41.8424 18.2002 39.6464Z" fill="#A9C3CB"/>
<path d="M51.8522 8.39818C54.0482 8.39818 55.799 6.61765 55.799 4.45135C55.799 2.25537 54.0185 0.504517 51.8522 0.504517C49.6859 0.504517 47.9053 2.28504 47.9053 4.45135C47.9053 6.61765 49.6859 8.39818 51.8522 8.39818Z" fill="#A9C3CB"/>
<path d="M69.3219 15.0842C70.8632 13.5429 70.8632 11.044 69.3219 9.50263C67.7806 7.96131 65.2816 7.96132 63.7403 9.50264C62.199 11.044 62.1989 13.5429 63.7403 15.0843C65.2816 16.6256 67.7806 16.6256 69.3219 15.0842Z" fill="#A9C3CB"/>
<path d="M27.6297 24.1374C28.4639 22.1235 27.5076 19.8147 25.4937 18.9805C23.4798 18.1463 21.1709 19.1026 20.3367 21.1165C19.5025 23.1304 20.4589 25.4392 22.4728 26.2734C24.4867 27.1076 26.7955 26.1513 27.6297 24.1374Z" fill="#A9C3CB"/>
<path d="M61.4136 27.1032C62.9549 25.5619 62.9549 23.0629 61.4136 21.5216C59.8723 19.9803 57.3733 19.9802 55.832 21.5216C54.2907 23.0629 54.2907 25.5619 55.832 27.1032C57.3733 28.6445 59.8723 28.6445 61.4136 27.1032Z" fill="#A9C3CB"/>
<path d="M5.1605 30.2959C7.31215 29.9467 8.77331 27.9194 8.42411 25.7677C8.07491 23.6161 6.04759 22.1549 3.89593 22.5041C1.74428 22.8533 0.283083 24.8806 0.632283 27.0323C0.981482 29.1839 3.00884 30.6451 5.1605 30.2959Z" fill="#A9C3CB"/>
<path d="M9.12983 54.6784C9.96403 52.6645 9.0077 50.3556 6.99381 49.5214C4.97991 48.6872 2.67107 49.6436 1.83687 51.6575C1.00267 53.6714 1.959 55.9802 3.97289 56.8144C5.98678 57.6486 8.29563 56.6923 9.12983 54.6784Z" fill="#A9C3CB"/>
<path d="M42.5341 21.3367C44.73 21.3367 46.4809 19.5561 46.4809 17.3898C46.4809 15.1938 44.7004 13.443 42.5341 13.443C40.3677 13.443 38.5873 15.2235 38.5873 17.3898C38.5873 19.5561 40.3677 21.3367 42.5341 21.3367Z" fill="#A9C3CB"/>
</svg>
