<svg width="131" height="96" viewBox="0 0 131 96" fill="none" xmlns="http://www.w3.org/2000/svg">
<path d="M14.0379 41.7513C14.8794 42.2562 15.9452 41.9197 16.4501 41.0782L38.3853 2.7057C38.8902 1.8642 38.5536 0.798269 37.7121 0.293368C36.8706 -0.211532 35.8047 0.125109 35.2998 0.96661L13.3646 39.339C12.9158 40.1805 13.1964 41.2464 14.0379 41.7513Z" fill="#00A7CB"/>
<path d="M39.3951 23.9115L51.5126 2.7057C52.0175 1.8642 51.681 0.798269 50.8395 0.293368C49.998 -0.211532 48.932 0.125109 48.4271 0.96661L33.8973 26.436C35.6925 25.4823 37.5438 24.6408 39.3951 23.9115Z" fill="#00A7CB"/>
<path d="M24.5846 0.293368C23.7431 -0.211532 22.6773 0.125109 22.1724 0.96661L0.237232 39.339C-0.267668 40.1805 0.0689049 41.2464 0.910406 41.7513C1.75191 42.2562 2.81784 41.9197 3.32274 41.0782L25.2579 2.7057C25.7628 1.8642 25.4261 0.798269 24.5846 0.293368Z" fill="#00A7CB"/>
<path d="M54.5981 20.3772V14.8793C54.5981 13.6451 55.1031 12.4671 55.9446 11.6817C56.7861 10.8402 57.9081 10.3352 59.1423 10.3352C59.535 10.3352 59.8715 10.3913 60.2081 10.4474L64.6401 2.64956C65.145 1.80806 64.8084 0.742133 63.9669 0.237232C63.1254 -0.267668 62.0595 0.0689049 61.5546 0.910406L50.1663 20.8821C51.6249 20.6577 53.0834 20.4894 54.5981 20.3772Z" fill="#00A7CB"/>
<path d="M63.6865 20.3772C64.9768 20.4894 66.2109 20.6577 67.4451 20.826L77.7675 2.7057C78.2724 1.8642 77.9358 0.798269 77.0943 0.293368C76.2528 -0.211532 75.1869 0.125109 74.682 0.96661L63.6865 20.3772Z" fill="#00A7CB"/>
<path d="M78.8335 23.9115L90.951 2.7057C91.4559 1.8642 91.1193 0.798269 90.2778 0.293368C89.4363 -0.211532 88.3704 0.125109 87.8655 0.96661L75.4675 22.7334C76.5895 23.07 77.7115 23.4627 78.8335 23.9115Z" fill="#00A7CB"/>
<path d="M88.9315 29.1849L104.078 2.7057C104.583 1.8642 104.247 0.798269 103.405 0.293368C102.564 -0.211532 101.498 0.125109 100.993 0.96661L85.9581 27.3336C86.9679 27.8946 87.9778 28.5678 88.9315 29.1849Z" fill="#00A7CB"/>
<path d="M97.8513 36.6462L117.206 2.7057C117.711 1.8642 117.374 0.798269 116.533 0.293368C115.691 -0.211532 114.625 0.125109 114.12 0.96661L95.2147 34.1217C96.1123 34.9071 96.9537 35.7486 97.8513 36.6462Z" fill="#00A7CB"/>
<path d="M129.66 0.293368C128.819 -0.211532 127.753 0.125109 127.248 0.96661L105.313 39.339C104.808 40.1805 105.144 41.2464 105.986 41.7513C106.827 42.2562 107.893 41.9197 108.398 41.0782L130.333 2.7057C130.838 1.8642 130.502 0.798269 129.66 0.293368Z" fill="#00A7CB"/>
<path d="M108.847 63.2937C108.791 63.0693 108.735 62.7889 108.679 62.5645C108.623 62.3401 108.566 62.1717 108.566 61.9473C108.51 61.6668 108.398 61.3863 108.342 61.1058C106.21 52.803 102.003 45.3417 96.3366 39.2268C95.4951 38.3292 94.6536 37.4877 93.756 36.6462C93.0267 35.973 92.2974 35.2998 91.512 34.6827C90.2217 33.6168 88.8753 32.6631 87.5289 31.7094C86.5752 31.0362 85.5654 30.4191 84.5556 29.8581C82.3116 28.5678 79.8993 27.3897 77.4309 26.436C76.3089 25.9872 75.1869 25.6506 74.0088 25.2579C71.4282 24.4725 68.6793 23.8554 65.9304 23.5188C64.6401 23.3505 63.3497 23.2383 62.0594 23.1822C61.6106 23.1822 61.2179 23.1261 60.7691 23.1261V14.9354C60.7691 14.0378 60.0399 13.3086 59.1423 13.3086C58.9179 13.3086 58.7496 13.3647 58.5813 13.4208C57.9642 13.6452 57.5154 14.2622 57.5154 14.9354V15.2721V23.1261C55.9446 23.1822 54.3737 23.2944 52.8029 23.5188C51.2882 23.6871 49.7735 23.9676 48.3149 24.3042C44.3318 25.1457 40.5732 26.4921 37.0389 28.1751C34.9632 29.1849 32.9436 30.363 30.9801 31.6533C29.5215 32.607 28.1189 33.6168 26.8286 34.7388C18.6941 41.4708 12.6913 50.6713 9.99855 61.162C9.94245 61.4425 9.8303 61.723 9.7742 62.0035C9.7181 62.2279 9.66203 62.3961 9.66203 62.6205C9.60593 62.8449 9.5498 63.0693 9.4937 63.3498C9.4376 63.462 9.43763 63.6303 9.38153 63.7425C9.26933 64.1913 9.49373 64.5841 9.94253 64.8085C10.3913 65.0329 10.8401 64.8646 11.0645 64.528C11.1767 64.4158 11.2328 64.3035 11.345 64.1913C11.4011 64.1352 11.4573 64.0792 11.5134 63.967C11.7378 63.6865 11.9621 63.462 12.1865 63.1815C12.3548 63.0132 12.5231 62.7888 12.6914 62.6205C16.0574 59.0862 20.7698 56.8983 25.9871 56.8983C29.3531 56.8983 32.4947 57.7959 35.2436 59.3667C37.9364 60.9375 40.2366 63.2377 41.8074 65.9305C41.9757 66.211 42.2561 66.3792 42.5927 66.3792C42.9293 66.3792 43.2098 66.211 43.3781 65.9305C44.9489 63.2377 47.2491 60.9375 49.9419 59.3667C51.4005 58.5252 52.9712 57.852 54.6543 57.4593C55.608 57.2349 56.5616 57.0667 57.5714 56.9545V59.8716V89.4925C57.5714 91.2877 58.3008 92.9146 59.4789 94.0927C60.657 95.2708 62.2839 96 64.0791 96C65.8743 96 67.5012 95.2708 68.6793 94.0927C69.8574 92.9146 70.5866 91.2877 70.5866 89.4925C70.5866 88.5949 69.8574 87.8655 68.9598 87.8655C68.0622 87.8655 67.3329 88.5949 67.3329 89.4925C67.3329 89.9413 67.2207 90.3901 67.0524 90.7267C66.828 91.2877 66.3792 91.7926 65.8743 92.1292C65.3694 92.4658 64.7523 92.6902 64.0791 92.6902C63.6303 92.6902 63.1815 92.578 62.8449 92.4097C62.2839 92.1853 61.779 91.7364 61.4424 91.2315C61.1058 90.7266 60.8814 90.1096 60.8814 89.4364V59.8155V56.8983C61.8912 57.0105 62.8449 57.1788 63.7986 57.4032C65.4816 57.852 67.0524 58.4691 68.4549 59.3106C71.1477 60.8814 73.4478 63.1815 75.0186 65.8743C75.1869 66.1548 75.4673 66.3232 75.8039 66.3232C76.1405 66.3232 76.4211 66.1548 76.5894 65.8743C78.1602 63.1815 80.4603 60.8814 83.1531 59.3106C85.8459 57.7398 89.0436 56.8422 92.4096 56.8422C95.4951 56.8422 98.3561 57.5716 100.881 58.918C102.676 59.8717 104.303 61.1059 105.705 62.5645C105.874 62.7328 106.042 62.9572 106.21 63.1255C106.435 63.406 106.659 63.6303 106.883 63.9108C106.94 63.9669 106.996 64.023 107.052 64.1352C107.164 64.2474 107.22 64.3596 107.332 64.4718C107.613 64.8084 108.061 64.9767 108.454 64.7523C108.847 64.584 109.071 64.1353 109.015 63.6865C108.903 63.5743 108.847 63.462 108.847 63.2937Z" fill="#00A7CB"/>
</svg>
