<svg width="116" height="96" viewBox="0 0 116 96" fill="none" xmlns="http://www.w3.org/2000/svg">
<path d="M115.625 58.5825C115.584 58.4188 115.543 58.255 115.502 58.0913C115.461 57.8047 115.379 57.5181 115.338 57.2316C115.297 56.9859 115.216 56.7812 115.175 56.5766C115.093 56.249 115.011 55.9215 114.929 55.594C111.777 43.3945 104.817 32.7096 95.3606 24.8904C85.6173 16.8256 73.213 11.8311 59.7034 11.4218V1.88316C59.7034 0.818766 58.8437 0 57.8203 0C56.7968 0 55.9371 0.859704 55.9371 1.88316V11.4218C42.4275 11.8311 30.0233 16.8256 20.28 24.8904C10.8233 32.6687 3.86377 43.3535 0.711529 55.594C0.629653 55.9215 0.547787 56.249 0.46591 56.5766C0.424972 56.7812 0.343086 57.0269 0.302148 57.2316C0.220271 57.5181 0.179323 57.8047 0.138385 58.0913C0.0974469 58.255 0.0565387 58.4188 0.0156005 58.5825C-0.0662758 59.0738 0.179353 59.565 0.629673 59.7697C1.07999 59.9744 1.65311 59.8107 1.93967 59.4013C2.02155 59.2785 2.14435 59.1557 2.22622 58.9919C2.26716 58.91 2.34904 58.8281 2.43091 58.7463C2.67654 58.4188 2.92219 58.1322 3.16782 57.8456C3.37251 57.6409 3.57721 57.3953 3.74096 57.1906C7.63009 53.0968 13.0748 50.5586 19.1746 50.5586C23.1047 50.5586 26.7482 51.623 29.9005 53.4652C33.0527 55.3075 35.6727 57.9275 37.5559 61.0797C37.7606 61.4073 38.0881 61.6119 38.4975 61.6119C38.9069 61.6119 39.2343 61.4073 39.439 61.0797C41.2812 57.9275 43.9423 55.3075 47.0945 53.4652C48.773 52.4827 50.6151 51.7458 52.5392 51.2546C53.6446 50.968 54.7499 50.7633 55.9371 50.6815V54.0793V88.4674C55.9371 90.5552 56.7968 92.4384 58.1478 93.7893C59.4988 95.1403 61.4229 96 63.4698 96C65.5576 96 67.4408 95.1403 68.7917 93.7893C70.1427 92.4384 71.0023 90.5143 71.0023 88.4674C71.0023 87.403 70.1427 86.5842 69.1192 86.5842C68.0957 86.5842 67.2361 87.4439 67.2361 88.4674C67.2361 88.9996 67.1133 89.4908 66.9495 89.9412C66.6629 90.5962 66.1717 91.2102 65.5985 91.5787C64.9845 91.9881 64.2885 92.2337 63.5107 92.2337C62.9785 92.2337 62.4872 92.1109 62.0369 91.9471C61.3819 91.6606 60.7678 91.1693 60.3994 90.5962C59.99 89.9821 59.7443 89.2861 59.7443 88.5083V54.1203V50.7224C60.8906 50.8452 62.0369 51.009 63.1422 51.2955C65.0663 51.7868 66.9086 52.5237 68.587 53.5062C71.7393 55.3484 74.3593 57.9685 76.2424 61.1207C76.4471 61.4482 76.7747 61.6529 77.184 61.6529C77.5525 61.6529 77.9209 61.4482 78.1256 61.1207C79.9678 57.9685 82.6288 55.3484 85.7811 53.5062C88.9333 51.664 92.5768 50.5996 96.5068 50.5996C100.068 50.5996 103.425 51.4593 106.373 53.0149C108.461 54.1203 110.344 55.5531 111.981 57.2316C112.186 57.4363 112.391 57.6819 112.555 57.8866C112.8 58.1731 113.046 58.5006 113.291 58.7872C113.373 58.8691 113.414 58.951 113.455 59.0328C113.537 59.1557 113.66 59.2785 113.742 59.4422C114.028 59.8516 114.602 60.0154 115.052 59.8107C115.461 59.565 115.707 59.0738 115.625 58.5825Z" fill="#00A7CB"/>
</svg>
