<svg width="139" height="96" viewBox="0 0 139 96" fill="none" xmlns="http://www.w3.org/2000/svg">
<g clip-path="url(#clip0_5_1416)">
<path d="M84.4966 12.63H100.388C101.515 12.63 101.93 11.8592 101.218 10.9697L93.6875 0.71155C93.0352 -0.237183 91.9086 -0.237183 91.1971 0.71155L83.6665 10.9697C82.9549 11.8592 83.37 12.63 84.4966 12.63ZM74.0605 14.8833L61.4305 12.9265C60.3039 12.7486 59.5331 13.5195 59.7109 14.6461L61.6677 27.2761C61.727 27.5133 61.7863 27.6912 61.8456 27.869C62.2607 27.9876 62.6164 28.1063 62.9722 28.2248C63.1501 28.1655 63.2687 28.0469 63.4466 27.869L74.6535 16.6622C75.4836 15.8913 75.2465 15.0612 74.0605 14.8833ZM123.217 64.0395C123.039 62.9129 122.268 62.6164 121.438 63.4466L110.231 74.6535C109.401 75.4836 109.697 76.2545 110.824 76.4324L123.454 78.3891C124.581 78.567 125.351 77.7961 125.174 76.6695L123.217 64.0395ZM137.448 44.4126L127.19 36.882C126.241 36.2298 125.529 36.5856 125.529 37.7122V53.6035C125.529 54.7301 126.3 55.1451 127.19 54.4336L137.448 46.903C138.397 46.2508 138.397 45.1242 137.448 44.4126ZM123.395 12.9858L110.765 14.9426C109.638 15.1204 109.342 15.8913 110.172 16.7214L121.379 27.9284C122.209 28.7585 122.98 28.462 123.158 27.3354L125.114 14.7054C125.351 13.5787 124.521 12.8079 123.395 12.9858ZM120.43 45.6578C120.43 30.1816 107.918 17.6702 92.4423 17.6702C82.4806 17.6702 73.7641 22.8882 68.7832 30.7152C70.7993 31.7826 72.6968 33.0278 74.4756 34.4509C79.9901 38.8981 84.2002 44.8869 86.4534 51.7653C92.6795 52.0025 98.3719 54.6115 102.463 58.7029C105.191 61.4305 107.266 64.8104 108.393 68.6053C115.686 63.5652 120.43 55.2044 120.43 45.6578Z" fill="#EA8C3A"/>
<path d="M85.6232 55.1451C85.0303 55.1451 84.4966 55.2045 83.9036 55.2045C81.6504 45.8357 75.4243 38.0086 67.1229 33.68C62.4978 31.2489 57.2798 29.8851 51.706 29.8851C36.882 29.8851 24.3113 39.669 20.1013 53.1291C8.89439 53.8407 0 63.1501 0 74.5349C0 86.3941 9.60594 96 21.4651 96H85.6232C96.8894 96 106.08 86.8684 106.08 75.5429C106.08 73.7641 105.843 72.0445 105.428 70.4435C103.116 61.6677 95.1106 55.1451 85.6232 55.1451Z" fill="#B5B5B6"/>
</g>
<defs>
<clipPath id="clip0_5_1416">
<rect width="138.159" height="96" fill="white"/>
</clipPath>
</defs>
</svg>
