<svg width="96" height="96" viewBox="0 0 96 96" fill="none" xmlns="http://www.w3.org/2000/svg">
<g clip-path="url(#clip0_5_675)">
<path d="M39.644 13.2944H56.3218C57.518 13.2944 57.9281 12.5084 57.2104 11.5173L49.2816 0.717693C48.5639 -0.239231 47.4019 -0.239231 46.6842 0.717693L38.7554 11.5173C38.0377 12.5084 38.4478 13.2944 39.644 13.2944Z" fill="#EA8C3A"/>
<path d="M15.6867 28.7419C15.8576 29.938 16.712 30.2115 17.5664 29.3571L29.3571 17.5664C30.2115 16.712 29.9381 15.8576 28.7419 15.6867L15.4817 13.6703C14.2855 13.4995 13.4653 14.3197 13.6362 15.5158L15.6867 28.7419Z" fill="#EA8C3A"/>
<path d="M11.5173 38.7895L0.717693 46.7184C-0.239231 47.436 -0.239231 48.598 0.717693 49.3157L11.5173 57.2445C12.4742 57.9622 13.2944 57.5521 13.2944 56.3559V39.6781C13.2944 38.4478 12.4742 38.0719 11.5173 38.7895Z" fill="#EA8C3A"/>
<path d="M17.5664 66.643C16.712 65.7886 15.8576 66.062 15.6867 67.2581L13.6703 80.5184C13.4995 81.7145 14.3197 82.5347 15.5158 82.3639L28.7761 80.3475C29.9722 80.1766 30.2456 79.3222 29.3912 78.4678L17.5664 66.643Z" fill="#EA8C3A"/>
<path d="M56.3218 82.7056H39.644C38.4478 82.7056 38.0377 83.4916 38.7554 84.4827L46.6842 95.2823C47.4019 96.2392 48.5639 96.2392 49.2816 95.2823L57.2104 84.4827C57.9281 83.4916 57.518 82.7056 56.3218 82.7056Z" fill="#EA8C3A"/>
<path d="M80.3133 67.2581C80.1424 66.062 79.288 65.7886 78.4336 66.643L66.6429 78.4336C65.7885 79.288 66.062 80.1424 67.2581 80.3133L80.5183 82.3297C81.7145 82.5006 82.5347 81.6803 82.3638 80.4842L80.3133 67.2581Z" fill="#EA8C3A"/>
<path d="M95.2481 46.7184L84.4486 38.7896C83.4916 38.0719 82.6714 38.482 82.6714 39.6782V56.356C82.6714 57.5522 83.4575 57.9623 84.4486 57.2446L95.2481 49.3158C96.2051 48.5981 96.2051 47.4361 95.2481 46.7184Z" fill="#EA8C3A"/>
<path d="M80.4842 13.6704L67.2239 15.6867C66.0278 15.8576 65.7544 16.712 66.6088 17.5664L78.3994 29.3571C79.2538 30.2115 80.1082 29.9381 80.2791 28.7419L82.2955 15.4817C82.5005 14.3197 81.6803 13.4995 80.4842 13.6704Z" fill="#EA8C3A"/>
<path d="M47.9829 77.4083C64.2152 77.4083 77.3742 64.2494 77.3742 48.0171C77.3742 31.7848 64.2152 18.6259 47.9829 18.6259C31.7506 18.6259 18.5917 31.7848 18.5917 48.0171C18.5917 64.2494 31.7506 77.4083 47.9829 77.4083Z" fill="#EA8C3A"/>
</g>
<defs>
<clipPath id="clip0_5_675">
<rect width="95.9658" height="96" fill="white"/>
</clipPath>
</defs>
</svg>
