<svg width="185" height="96" viewBox="0 0 185 96" fill="none" xmlns="http://www.w3.org/2000/svg">
<g clip-path="url(#clip0_5_1513)">
<path d="M184.515 58.9668C184.515 58.8366 184.45 58.6414 184.385 58.5112C184.32 58.2509 184.255 57.9905 184.19 57.6651C184.125 57.4698 184.06 57.2095 184.06 57.0142C183.995 56.6888 183.93 56.3634 183.799 56.0379C180.675 43.9973 173.841 33.4535 164.534 25.7735C154.902 17.8332 142.731 12.9519 129.389 12.4963V3.05898C129.389 2.01763 128.542 1.17151 127.501 1.17151C126.46 1.17151 125.614 2.01763 125.614 3.05898V12.4963C114.028 12.8868 103.355 16.5966 94.438 22.7797C94.5682 23.1702 94.7634 23.6258 94.8936 24.0813C96 24.1464 97.0414 24.2115 98.0827 24.4068C103.615 25.318 108.626 27.9213 112.466 31.7613C116.892 36.1871 119.756 42.3051 120.081 49.0088C120.081 49.3993 120.081 49.8549 120.081 50.2454C120.081 51.0264 120.016 51.8075 119.951 52.5234C120.667 52.2631 121.448 52.0027 122.229 51.8074C123.336 51.5471 124.442 51.3519 125.548 51.2217V54.6061V88.5153C125.548 90.5329 126.395 92.4203 127.696 93.7871C129.063 95.1539 130.885 96 132.968 96C134.986 96 136.873 95.1539 138.24 93.7871C139.607 92.4203 140.453 90.598 140.453 88.5153C140.453 87.4739 139.607 86.6278 138.565 86.6278C137.524 86.6278 136.678 87.4739 136.678 88.5153C136.678 89.0359 136.548 89.4915 136.418 89.9471C136.157 90.5979 135.637 91.1837 135.051 91.5742C134.465 91.9647 133.749 92.225 132.968 92.225C132.447 92.225 131.992 92.0949 131.536 91.9648C130.885 91.7044 130.3 91.1837 129.909 90.5979C129.519 90.0122 129.258 89.2963 129.258 88.5153V54.6061V51.2217C130.43 51.3519 131.536 51.5471 132.578 51.8074C134.465 52.263 136.287 53.0441 137.915 54.0203C141.039 55.8427 143.642 58.4461 145.464 61.5051C145.66 61.8305 145.985 62.0257 146.376 62.0257C146.766 62.0257 147.092 61.8305 147.287 61.5051C149.109 58.381 151.713 55.8427 154.837 54.0203C157.961 52.198 161.54 51.1566 165.38 51.1566C168.895 51.1566 172.214 52.0027 175.078 53.4997C177.161 54.6061 178.983 55.9729 180.61 57.6651C180.805 57.8603 181.001 58.1207 181.196 58.3159C181.456 58.5762 181.717 58.9017 181.912 59.2271C181.977 59.2922 182.042 59.3573 182.107 59.4875C182.237 59.6176 182.302 59.7478 182.433 59.878C182.758 60.2685 183.279 60.3986 183.734 60.2034C184.32 59.943 184.58 59.4224 184.515 58.9668Z" fill="#00A7CB"/>
<path d="M93.9824 27.7261C93.7871 27.7261 93.5268 27.7261 93.3315 27.7261C92.941 27.7261 92.4854 27.7912 92.0949 27.7912C91.8997 26.88 91.6394 25.9688 91.3139 25.0576C90.9234 23.9512 90.5329 22.8447 90.0773 21.8034C84.48 8.98169 71.6583 0 56.7539 0C40.4827 0 26.6848 10.739 22.0637 25.5132C9.76273 26.2942 0 36.5125 0 49.0088C0 62.0258 10.5437 72.5695 23.5607 72.5695H93.9824C101.142 72.5695 107.52 69.1851 111.685 63.9132C111.946 63.5878 112.206 63.1973 112.466 62.8068C112.662 62.4814 112.857 62.221 113.052 61.8956C114.419 59.6176 115.46 57.1444 115.981 54.4759C116.241 53.1742 116.372 51.7424 116.437 50.3756C116.437 50.3105 116.437 50.1803 116.437 50.1153C116.437 37.7492 106.348 27.7261 93.9824 27.7261Z" fill="#B5B5B6"/>
</g>
<defs>
<clipPath id="clip0_5_1513">
<rect width="184.525" height="96" fill="white"/>
</clipPath>
</defs>
</svg>
