<svg width="145" height="96" viewBox="0 0 145 96" fill="none" xmlns="http://www.w3.org/2000/svg">
<path d="M126.526 60.2421C126.032 60.2421 125.537 60.2421 125.043 60.297C122.022 47.5538 110.542 38.0513 96.8651 38.0513C94.3384 38.0513 91.8667 38.3808 89.5048 38.985L95.437 43.3244C96.0412 43.7638 96.5905 44.368 96.975 45.0271C97.3594 45.7412 97.5792 46.5651 97.5792 47.389C97.5792 48.2129 97.3594 49.0368 96.975 49.7509C96.5905 50.465 96.0412 51.0142 95.437 51.4537L84.8359 59.1985C84.4514 59.4731 84.0669 59.6928 83.5726 59.9125C83.0782 60.0773 82.529 60.2421 81.8698 60.2421C81.5952 60.2421 81.3205 60.1872 81.0459 60.1322C80.7713 60.8463 80.4417 61.6153 80.1121 62.3293C80.6065 62.6589 80.991 63.0434 81.2656 63.4828C81.4853 63.8124 81.6501 64.142 81.8149 64.4715C81.9797 64.911 82.0895 65.2954 82.1445 65.7349L84.1219 78.6978C84.1768 78.9724 84.1768 79.2471 84.1768 79.5217C84.1768 80.4555 83.9022 81.4442 83.3529 82.3231C82.8036 83.147 81.9797 83.861 81.0459 84.1906C80.4417 84.4103 79.7826 84.5202 79.1784 84.5202C78.9037 84.5202 78.6291 84.5201 78.3545 84.4652L65.3915 82.4878C64.9521 82.4329 64.4577 82.2681 63.9634 82.1033C63.469 81.8836 62.9747 81.5541 62.5352 81.1146C62.3155 80.8949 62.0958 80.5654 61.9311 80.2907C61.217 80.6203 60.5578 80.8949 59.7889 81.1696C59.8987 81.5541 59.9537 81.9385 59.9537 82.2681C59.9537 82.9272 59.8438 83.4765 59.6241 83.9709C59.4593 84.4652 59.1847 84.8497 58.91 85.2342L55.9439 89.2439C59.4044 93.3635 64.5676 96.0001 70.3899 96.0001H126.581C136.468 96.0001 144.487 87.9806 144.487 78.0936C144.433 68.2615 136.413 60.2421 126.526 60.2421Z" fill="#B5B5B6"/>
<path d="M38.8065 12.9492H39.5755H39.6304H41.0585H41.3881H52.5384H52.868H54.2961H54.351H55.12C55.7791 12.9492 56.1636 12.7295 56.2735 12.345C56.3284 12.1253 56.3284 11.9056 56.2186 11.631C56.1636 11.5211 56.1087 11.3563 55.9988 11.2465L55.12 10.038L55.0651 9.98313L48.254 0.700329C47.54 -0.233443 46.4414 -0.233443 45.7274 0.700329L38.9163 9.98313L38.8614 10.038L37.9826 11.2465C37.8727 11.3563 37.8178 11.5211 37.7628 11.631C37.653 11.9056 37.653 12.1253 37.7079 12.345C37.7628 12.6746 38.1473 12.9492 38.8065 12.9492Z" fill="#EA8C3A"/>
<path d="M13.32 15.0914L15.0227 26.2966V26.4065L15.1326 27.1755L15.2425 28.0543C15.2425 28.2191 15.2974 28.3839 15.3523 28.4937C15.6269 29.1529 16.1762 29.3177 16.7804 28.8782C16.8903 28.8233 16.9452 28.7135 17.0551 28.6585L17.4945 28.2191L17.6593 28.0543L18.3733 27.3402L18.5381 27.1755L26.6125 19.1011L26.7773 18.9363L27.5463 18.1673L27.6561 18.0575L28.5899 17.1237C28.8096 16.904 28.9744 16.6843 29.0293 16.4646C29.1392 16.0251 28.9744 15.6407 28.4251 15.4209C28.3153 15.366 28.1505 15.3111 27.9857 15.3111L15.0227 13.3337C13.9791 13.114 13.2101 13.9379 13.32 15.0914Z" fill="#EA8C3A"/>
<path d="M11.6721 37.6667C11.5623 37.7217 11.3975 37.7766 11.2877 37.8864L0.686595 45.6862C0.137318 46.1256 -0.0823915 46.6749 0.027464 47.2241C0.0823918 47.6086 0.302101 47.9382 0.686595 48.2128L9.47504 54.6943L9.69475 54.8591L10.6285 55.5732L10.7384 55.683L11.2327 56.0675C11.3426 56.1774 11.5074 56.2323 11.6172 56.2872C12.2214 56.5619 12.7158 56.3422 12.8806 55.683C12.9355 55.5182 12.9355 55.3535 12.9355 55.1887V54.2V53.5408V53.4859V41.5666V41.5117V40.8525V39.3695V38.8751C12.9904 37.7766 12.3862 37.3372 11.6721 37.6667Z" fill="#EA8C3A"/>
<path d="M28.9744 77.0499C28.9195 76.9401 28.8096 76.8851 28.7547 76.7753L17.2199 65.2405C16.5058 64.5264 15.7917 64.6363 15.5171 65.4053C15.4622 65.5151 15.4072 65.6799 15.4072 65.8447L15.0777 67.877L15.0227 68.3713V68.4263L13.4298 78.7527C13.3749 78.9175 13.4298 79.1372 13.4298 79.302C13.5397 80.1808 14.2538 80.7301 15.2425 80.5653L25.5689 78.9724L25.8984 78.9175L27.2167 78.6978H27.3815L28.2603 78.5879C28.4251 78.5879 28.5899 78.533 28.6998 78.4781C29.0293 78.3682 29.1941 78.1485 29.304 77.9288C29.249 77.6541 29.1941 77.3795 28.9744 77.0499Z" fill="#EA8C3A"/>
<path d="M56.2735 82.2681C56.3284 82.2132 56.3284 82.1033 56.3284 82.0484C56.4932 81.3893 56.0538 80.8949 55.1749 80.8949H51.9342H38.8614C37.9276 80.8949 37.4882 81.3893 37.7079 82.0484C37.7079 82.1033 37.7628 82.1582 37.7628 82.2681C37.8178 82.3779 37.8727 82.5427 37.9825 82.6526L38.8614 83.861L39.0811 84.1906L39.5205 84.7948L39.6304 84.9596L45.7274 93.2536C46.4414 94.1874 47.54 94.1874 48.254 93.2536L53.637 85.8933L54.351 84.9596L54.4609 84.7948L55.0101 84.0807L55.1749 83.861L56.0538 82.6526C56.1087 82.5427 56.2186 82.3779 56.2735 82.2681Z" fill="#EA8C3A"/>
<path d="M65.3915 78.4781C65.5013 78.533 65.6661 78.5879 65.8309 78.5879L66.7098 78.6978H66.8745L68.1928 78.9175L68.5224 78.9724L78.8488 80.5653C79.8375 80.7301 80.5515 80.1808 80.6614 79.302C80.6614 79.1372 80.7163 78.9724 80.6614 78.7527L79.0685 68.4263V68.3713L79.0136 67.877L78.684 65.8447C78.684 65.6799 78.6291 65.5151 78.5742 65.4053C78.2446 64.6363 77.5854 64.5264 76.8714 65.2405L76.5967 65.5151L65.2816 76.8302C64.8422 77.2697 64.7324 77.6542 64.8422 78.0386C64.8971 78.1485 65.1169 78.3682 65.3915 78.4781Z" fill="#EA8C3A"/>
<path d="M82.3092 56.2324C82.4191 56.1774 82.5839 56.1225 82.6937 56.0126L83.1881 55.6281L83.4078 55.4634L84.2866 54.8042L84.5063 54.6394L93.2948 48.158C93.6793 47.8833 93.899 47.4989 93.9539 47.1693C94.0638 46.62 93.8441 46.0707 93.2948 45.6313L85.8795 40.1935L82.7487 37.8865C82.6388 37.7766 82.474 37.7217 82.3642 37.6668C81.5952 37.3372 81.0459 37.7766 81.0459 38.7653V39.2597V40.7427V41.4019V41.4568V42.7201V53.3212V53.3761V54.0353V55.024C80.991 56.1225 81.5402 56.5619 82.3092 56.2324Z" fill="#EA8C3A"/>
<path d="M65.2816 17.1238L65.5563 17.3984L66.2703 18.1124L66.4351 18.2772L67.1492 18.9913L67.314 19.1561L75.3884 27.2305L75.5531 27.3953L76.3221 28.1642L76.432 28.2741L76.8714 28.7135C77.5855 29.4276 78.2995 29.3177 78.5742 28.5487C78.6291 28.4389 78.684 28.2741 78.684 28.1093L78.7939 27.2305L78.9037 26.4615V26.3516L80.6065 15.1464C80.6065 15.1464 80.6065 15.1463 80.6065 15.0914C80.7713 13.9379 79.9473 13.1689 78.7939 13.3337L65.8309 15.3111C65.6661 15.3111 65.5013 15.3661 65.3915 15.421C64.8971 15.6407 64.6774 16.0252 64.7873 16.4646C64.8971 16.6294 65.007 16.904 65.2816 17.1238Z" fill="#EA8C3A"/>
<path d="M75.7728 47.1692C75.7728 47.0594 75.7728 47.0044 75.7728 46.8946C75.7728 31.0205 62.8648 18.1124 46.9907 18.1124C31.1166 18.1124 18.2086 31.0205 18.2086 46.8946C18.2086 47.0044 18.2086 47.0594 18.2086 47.1692C18.3184 62.9335 31.1715 75.6767 46.9907 75.6767C48.5836 75.6767 50.1216 75.5669 51.6046 75.2922C65.2267 73.1501 75.663 61.3955 75.7728 47.1692Z" fill="#EA8C3A"/>
</svg>
