<svg width="130" height="96" viewBox="0 0 130 96" fill="none" xmlns="http://www.w3.org/2000/svg">
<path d="M23.8537 27.4937C23.8537 27.4287 23.7886 27.3636 23.7886 27.2337C23.6586 26.3237 22.8137 25.7387 21.9038 25.8687C20.9938 25.9987 20.4088 26.8437 20.5388 27.7537C20.6038 28.2086 20.7338 28.5986 20.8638 29.0536C20.8638 29.1186 20.8638 29.1186 20.9288 29.1835C22.2288 33.4733 26.2585 36.5282 30.8083 36.5282C35.488 36.5282 39.3878 33.5383 40.6877 29.1835C40.6877 29.1186 40.6878 29.1186 40.7528 29.0536C40.8828 28.6636 40.9478 28.2086 41.0778 27.7537C41.2078 26.8437 40.6227 26.0637 39.7128 25.8687C38.8028 25.7387 38.0229 26.3237 37.8279 27.2337C37.8279 27.2986 37.7629 27.3637 37.7629 27.4937C37.6979 27.8186 37.6329 28.1436 37.503 28.4036C36.528 31.2635 33.8631 33.2784 30.7432 33.2784C27.6884 33.2784 24.9586 31.2635 23.9836 28.4036C23.9836 28.1436 23.9187 27.8186 23.8537 27.4937Z" fill="white"/>
<path d="M22.5538 18.199C24.0487 18.199 25.2836 16.9641 25.2836 15.4692C25.2836 13.9742 24.0487 12.7393 22.5538 12.7393C21.0589 12.7393 19.824 13.9742 19.824 15.4692C19.824 16.9641 21.0589 18.199 22.5538 18.199Z" fill="white"/>
<path d="M39.1279 18.199C40.6228 18.199 41.8577 16.9641 41.8577 15.4692C41.8577 13.9742 40.6228 12.7393 39.1279 12.7393C37.633 12.7393 36.3981 13.9742 36.3981 15.4692C36.3981 16.9641 37.568 18.199 39.1279 18.199Z" fill="white"/>
<path d="M129.798 65.3215C129.733 65.1265 129.668 64.8666 129.668 64.6716C129.603 64.4766 129.603 64.2816 129.538 64.0866C129.473 63.8266 129.408 63.5667 129.343 63.2417C126.808 53.3622 121.154 44.7176 113.484 38.348C105.619 31.8483 95.5449 27.7536 84.5605 27.4286V19.694C84.5605 18.849 83.8456 18.134 83.0006 18.134C82.1557 18.134 81.4406 18.849 81.4406 19.694V27.4286C72.6011 27.6886 64.3466 30.4184 57.327 34.8381C56.872 35.9431 56.417 37.048 55.832 38.088C56.027 38.2829 56.2219 38.5429 56.4169 38.7379C58.6918 41.2728 60.6417 44.1977 62.1367 47.3175C64.1516 51.6723 65.3216 56.612 65.3216 61.7467C65.3216 61.8117 65.3216 61.8118 65.3216 61.8768C65.3216 63.1117 65.2566 64.3466 65.1266 65.5815C65.6465 66.2315 66.1665 66.9464 66.5565 67.6614C66.6865 67.9214 67.0114 68.1164 67.3364 68.1164C67.6614 68.1164 67.9213 67.9214 68.1163 67.6614C69.6112 65.1265 71.7561 62.9816 74.291 61.4867C75.6559 60.7068 77.1509 60.0568 78.7108 59.6669C79.6207 59.4719 80.5307 59.2768 81.4406 59.2118V61.9417V89.8253C81.4406 91.5152 82.1556 93.0751 83.2606 94.18C84.3655 95.285 85.9254 96 87.6153 96C89.3052 96 90.8653 95.285 91.9702 94.18C93.0751 93.0751 93.79 91.5152 93.79 89.8253C93.79 88.9803 93.0751 88.2654 92.2301 88.2654C91.3852 88.2654 90.6703 88.9803 90.6703 89.8253C90.6703 90.2803 90.6052 90.6702 90.4102 90.9952C90.1502 91.5152 89.7602 92.0351 89.3053 92.3601C88.7853 92.6851 88.2653 92.8801 87.6153 92.8801C87.1603 92.8801 86.7705 92.8151 86.4455 92.6201C85.9255 92.3601 85.4055 91.9702 85.0805 91.5152C84.7555 90.9952 84.5605 90.4753 84.5605 89.8253V61.9417V59.2118C85.4704 59.2768 86.4454 59.4719 87.2903 59.6669C88.8502 60.0568 90.3452 60.7068 91.7101 61.4867C94.245 62.9816 96.3899 65.1265 97.8848 67.6614C98.0148 67.9214 98.3397 68.1164 98.6647 68.1164C98.9897 68.1164 99.2498 67.9214 99.4448 67.6614C100.94 65.1265 103.085 62.9816 105.619 61.4867C108.154 59.9918 111.144 59.1469 114.329 59.1469C117.189 59.1469 119.919 59.8618 122.324 61.0968C124.013 62.0067 125.573 63.1767 126.873 64.5416C127.068 64.7366 127.198 64.8665 127.328 65.0615C127.523 65.3215 127.718 65.5166 127.913 65.7766C127.978 65.8416 128.043 65.9065 128.043 65.9715C128.108 66.1015 128.238 66.1665 128.303 66.2965C128.563 66.6215 129.018 66.7515 129.343 66.5565C129.733 66.3615 129.928 65.9715 129.863 65.5815C129.863 65.5815 129.798 65.4515 129.798 65.3215Z" fill="#00A7CB"/>
<path d="M30.8734 92.8152C46.6025 92.8152 59.6019 80.9857 61.4218 65.7115C61.5518 64.6066 61.6166 63.5017 61.6166 62.3967C61.6166 62.2667 61.6166 62.1367 61.6166 62.0068C61.6166 61.0318 61.5517 60.0569 61.4867 59.0819C60.8367 52.2573 57.9769 46.0176 53.5571 41.2078C52.9072 40.5579 52.2572 39.9079 51.6072 39.258C51.4122 39.128 51.2822 38.933 51.0872 38.803C52.1272 37.3731 52.9722 35.8131 53.6222 34.1232C54.8571 31.1984 55.507 28.0135 55.507 24.6987C55.507 11.0494 44.4576 0 30.8083 0C17.159 0 6.10962 11.0494 6.10962 24.6987C6.10962 29.9634 7.73456 34.8382 10.5294 38.803C4.09475 44.4577 0 52.7122 0 62.0068C0.0649966 78.9709 13.8443 92.8152 30.8734 92.8152ZM39.1279 12.7393C40.6228 12.7393 41.8577 13.9743 41.8577 15.4692C41.8577 16.9641 40.6228 18.199 39.1279 18.199C37.633 18.199 36.3981 16.9641 36.3981 15.4692C36.3981 13.9743 37.568 12.7393 39.1279 12.7393ZM30.8734 33.2783C33.9282 33.2783 36.658 31.2634 37.633 28.4036C37.763 28.0786 37.8279 27.8186 37.8929 27.4936C37.8929 27.4286 37.9579 27.3636 37.9579 27.2336C38.0879 26.3236 38.9328 25.7387 39.8428 25.8687C40.7527 25.9987 41.3378 26.8436 41.2078 27.7536C41.1428 28.2086 41.0128 28.5985 40.8828 29.0535C40.8828 29.1185 40.8827 29.1185 40.8177 29.1835C39.5178 33.5383 35.553 36.5281 30.9383 36.5281C26.3885 36.5281 22.3588 33.4733 21.0588 29.1835C21.0588 29.1185 21.0588 29.1185 20.9938 29.0535C20.8638 28.5985 20.7338 28.2086 20.6688 27.7536C20.5388 26.8436 21.1238 26.0637 22.0338 25.8687C22.9437 25.7387 23.7236 26.3236 23.9186 27.2336C23.9186 27.2986 23.9837 27.3636 23.9837 27.4936C24.0487 27.8186 24.1136 28.1436 24.2436 28.4036C25.0236 31.2634 27.7535 33.2783 30.8734 33.2783ZM22.5538 12.7393C24.0487 12.7393 25.2836 13.9743 25.2836 15.4692C25.2836 16.9641 24.0487 18.199 22.5538 18.199C21.0589 18.199 19.824 16.9641 19.824 15.4692C19.824 13.9743 21.0589 12.7393 22.5538 12.7393Z" fill="#A9C3CB"/>
</svg>
