<svg width="86" height="96" viewBox="0 0 86 96" fill="none" xmlns="http://www.w3.org/2000/svg">
<path d="M85.9095 68.2498C85.8791 68.1281 85.8487 68.0063 85.8183 67.8846C85.7878 67.6716 85.727 67.4587 85.6965 67.2457C85.6661 67.0631 85.6052 66.9109 85.5748 66.7588C85.514 66.5154 85.4531 66.272 85.3923 66.0285C83.0493 56.961 77.8766 49.0194 70.8477 43.2076C69.0525 41.7167 67.1051 40.3778 65.0969 39.1607L63.4537 41.1081L50.4306 56.6263C49.7003 57.4783 48.4832 57.6609 47.5399 57.0523C46.5967 56.4438 46.2924 55.2266 46.7792 54.2225L55.1165 37.4568L56.2424 35.2051H46.5663C45.7143 35.2051 44.9232 34.6878 44.558 33.9271C44.4363 33.6837 44.3755 33.4098 44.3755 33.136V33.1056C44.3755 33.0447 44.3755 32.9839 44.3755 32.8926V26.0463C44.3755 25.2552 43.7365 24.6466 42.9758 24.6466C42.1846 24.6466 41.5761 25.2856 41.5761 26.0463V33.136C31.5349 33.4403 22.3152 37.1525 15.0734 43.1468C8.04456 48.9281 2.8718 56.8697 0.528855 65.9677C0.467999 66.2111 0.40715 66.4545 0.346295 66.698C0.315867 66.8501 0.255004 67.0327 0.224576 67.1848C0.16372 67.3978 0.133322 67.6108 0.102894 67.8238C0.072466 67.9455 0.0420232 68.0672 0.0115953 68.1889C-0.0492605 68.5541 0.133307 68.9192 0.468014 69.0713C0.80272 69.2235 1.2287 69.1018 1.44169 68.7975C1.50255 68.7062 1.59385 68.6149 1.65471 68.4932C1.71556 68.4323 1.74599 68.3715 1.80685 68.3106C1.98942 68.0672 2.17196 67.8542 2.35453 67.6412C2.50667 67.4891 2.65881 67.3065 2.78053 67.1544C5.67118 64.1116 9.71811 62.2251 14.2519 62.2251C17.1729 62.2251 19.881 63.0162 22.224 64.3854C24.5669 65.7547 26.5143 67.7021 27.914 70.045C28.0661 70.2884 28.3095 70.4406 28.6138 70.4406C28.8877 70.4406 29.1615 70.2884 29.3137 70.045C30.6829 67.7021 32.6607 65.7547 35.0037 64.3854C36.2512 63.6552 37.6205 63.1075 39.0506 62.7423C39.8721 62.5293 40.6937 62.3772 41.5761 62.3163V64.8418V90.4013C41.5761 91.9531 42.2151 93.3528 43.2192 94.3569C44.2233 95.361 45.6534 96 47.1748 96C48.7266 96 50.1263 95.361 51.1305 94.3569C52.1346 93.3528 52.7736 91.9227 52.7736 90.4013C52.7736 89.6102 52.1346 89.0016 51.3739 89.0016C50.6132 89.0016 49.9742 89.6406 49.9742 90.4013C49.9742 90.7968 49.8829 91.162 49.7612 91.4967C49.5482 91.9835 49.1831 92.4399 48.7571 92.7138C48.3006 93.0181 47.7834 93.2006 47.2052 93.2006C46.8097 93.2006 46.4446 93.1094 46.1098 92.9876C45.623 92.7747 45.1666 92.4095 44.8927 91.9835C44.5885 91.5271 44.4059 91.0098 44.4059 90.4317V64.8723V62.3468C45.2579 62.438 46.1098 62.5598 46.9314 62.7728C48.3615 63.1379 49.7308 63.6856 50.9783 64.4159C53.3213 65.7851 55.2686 67.7325 56.6683 70.0754C56.8205 70.3189 57.0639 70.471 57.3682 70.471C57.6724 70.471 57.9159 70.3189 58.068 70.0754C59.4373 67.7325 61.4151 65.7851 63.758 64.4159C66.101 63.0466 68.809 62.2555 71.7301 62.2555C74.3773 62.2555 76.8725 62.8945 79.0633 64.0507C80.6151 64.8723 82.0148 65.9373 83.2319 67.1848C83.384 67.3369 83.5362 67.5195 83.6883 67.6716C83.8709 67.8846 84.0534 68.1281 84.236 68.3411C84.2969 68.4019 84.3273 68.4628 84.3577 68.5236C84.4186 68.6149 84.5099 68.7062 84.5707 68.8279C84.7837 69.1322 85.2097 69.2539 85.5444 69.1018C85.8182 68.98 86.0008 68.6149 85.9095 68.2498Z" fill="#00A7CB"/>
<path d="M57.7029 33.0447H59.8024L59.4981 33.6837L58.3723 35.9353L57.2465 38.2174L52.9561 46.8285L48.7571 55.2266L54.8122 48.0152L61.476 40.0735L63.1495 38.0957L64.7926 36.1179L74.0731 25.0422H60.8066L74.8338 0L48.3311 30.9452L46.8706 32.6491L46.5663 33.0447H46.8706H57.7029Z" fill="#FAC311"/>
</svg>
